<svg xmlns="http://www.w3.org/2000/svg" width="1454" height="880" viewBox="-22.86531490887411 -211.6214577408077 1453.6402317635093 879.8902980208974"><rect x="-22.86531490887411" y="-211.6214577408077" width="1453.6402317635093" height="879.8902980208974" fill="rgb(31, 31, 31)"/><text x="320" y="84.91765567555147" fill="#f97316" font-size="24.91765567555147" font-family="'Courier New',Courier,monospace">KANVAS CLOUD ORCHESTRATION ARCHITECTURE</text><g><path d="M320.59008873924614 95.97353214994072 C488.4546690660782 92.60349056235154, 658.0122082246975 92.29664935580094, 904.9000722830349 95.89683177247643 M320.23484288342297 94.70082571022212 C484.558698389907 94.61823616959849, 647.4132778496381 94.26325700022976, 904.8003767521285 95.49385939352214" stroke="#f97316" stroke-width="2" fill="none"/></g><g><path d="M185.03936033591563 248.22980040450614 C195.46054104789965 249.10228594410694, 207.98835563158318 253.34331239918026, 216.22078450838853 257.55592479958057 C224.4532133851939 261.76853719998087, 230.71310070744886 267.21299386650657, 234.4339335967478 273.5054748069079 C238.15476648604675 279.79795574730923, 239.42357762223517 288.5802680449123, 238.54578184418227 295.3108104419886 C237.66798606612937 302.0413528390649, 234.88144123428012 308.55954012844666, 229.16715892843035 313.8887291893656 C223.4528766225806 319.2179182502846, 214.05228424998262 324.0050480221922, 204.26008800908363 327.28594480750235 C194.46789176818464 330.56684159281247, 181.13661385372754 333.46105288877766, 170.41398148303642 333.57410990122617 C159.6913491123453 333.6871669136747, 149.332119156413 330.8974647105441, 139.92429378493696 327.9642868821935 C130.51646841346093 325.0311090538429, 120.5785635810422 321.5373234219344, 113.96702925418026 315.9750429311227 C107.35549492731832 310.412762440311, 101.65516069571689 301.1760571368611, 100.25508782376527 294.5906039373234 C98.85501495181364 288.0051507377857, 102.03408626880093 282.5088667386018, 105.56659202247057 276.46232373389654 C109.09909777614021 270.4157807291913, 113.83510159930104 263.095268422392, 121.45012234578311 258.31134590909176 C129.0651430922652 253.52742339579154, 138.66030154737635 248.79913608191254, 151.25671650136303 247.75878865409527 C163.8531314553497 246.718441226278, 187.76466630517825 250.75174661975515, 197.02861206970317 252.06926134218824 C206.2925578342281 253.38677606462133, 207.3062413993381 255.37316493009368, 206.8403910885125 255.6638769886938 M127.02600503333247 257.3581311707739 C134.53068888526624 252.50435248836402, 144.79856428282923 248.6810355997759, 155.0839715709075 247.1513976399301 C165.36937885898575 245.62175968008432, 178.6188973271414 246.2697835910764, 188.73844876180198 248.18030341169913 C198.85800019646254 250.09082323232187, 208.2094342531013 254.1486471792282, 215.80128017887083 258.61451656366654 C223.39312610464034 263.0803859481049, 230.70896980188917 268.96199583363733, 234.28952431641915 274.97551971832917 C237.87007883094913 280.989043603021, 238.587645993867 287.7249266343591, 237.28460726605073 294.6956598718175 C235.98156853823446 301.6663931092759, 232.66237052321665 311.4148794980593, 226.47129194952146 316.79991914307925 C220.28021337582626 322.1849587880992, 209.61639323837025 324.05605675540613, 200.13813582387962 327.0058977419372 C190.659878409389 329.95573872846825, 180.17369924373193 334.8071683713808, 169.60174746257772 334.49896506226554 C159.0297956814235 334.1907617531503, 146.0224984846889 329.06226223528046, 136.7064251369544 325.15667788724585 C127.39035178921992 321.25109353921124, 119.75411462421982 316.62867330258626, 113.70530737617078 311.065458974058 C107.65650012812173 305.50224464552974, 101.94459220163188 297.64300234563655, 100.41358164866011 291.7773919160764 C98.88257109568835 285.91178148651625, 100.5309180126373 281.2533213167559, 104.51924405834019 275.87179639669705 C108.50757010404308 270.4902714766382, 120.39069000218913 262.60527492123845, 124.34353792287743 259.48824239572326 C128.29638584356573 256.3712098702081, 127.36657027217994 256.7225450201817, 128.23633158246997 257.16960124360605" stroke="#ffffff" stroke-width="2" fill="none"/></g><text x="135" y="289" fill="#ffffff" font-size="14" font-family="'Segoe Print','Comic Sans MS',cursive,sans-serif">Developer</text><g><path d="M342.33290736284107 237.7713117012754 C391.1752922134474 241.40174367897214, 442.4649875117466 239.6146275984496, 520.2083447119221 241.00758919212967 M339.16811217414215 238.94275801582262 C400.8995415219106 238.55150907659902, 464.472478304524 238.1005343886651, 519.4185975496657 240.12231991393492 M522.6526045938954 237.8763519236818 C518.044240604341 272.33476011361927, 521.3074628517031 306.69963288027793, 522.8617354473099 340.831777096726 M518.5638744537719 240.78375802142546 C518.7915856222622 264.7299598841928, 518.412073297333 291.99797676084563, 519.3569628451951 340.9535004119389 M521.9443391403183 337.19464230630547 C463.5581512534991 338.11045288518073, 401.53010145109147 342.29354211166503, 337.47138591017574 339.26927009318024 M521.1273427461274 340.961698315572 C460.51938355574384 338.74752812804655, 401.4151937630959 337.7802160453983, 339.5336670880206 338.6440058420412 M340.4718744298443 341.85060301516205 C341.87906029783187 319.0718494830653, 339.88444906435905 297.152990703471, 338.448520465754 240.531402410008 M340.3421138529666 339.1777965496294 C342.3282725243829 305.5186324468814, 341.7566167592071 270.7040799888782, 338.52263911115006 239.31253432435915" stroke="#ffffff" stroke-width="2" fill="none"/></g><text x="360" y="289" fill="#ffffff" font-size="14" font-family="'Segoe Print','Comic Sans MS',cursive,sans-serif">React Frontend
(Vite Dashboard)</text><g><path d="M618.9046977059916 240.66296591889113 C670.2176491534337 237.5780437783152, 726.7878532940522 239.11091898836196, 797.8275607423857 242.18459569942206 M620.222115484532 239.7365538426675 C689.9045802163891 241.67508933244272, 760.1050174175762 242.51509680150076, 800.6774746901356 239.3807675340213 M801.2627173261717 238.6280516339466 C803.2787563994527 279.52599578071386, 802.616586317122 314.77818320598453, 801.033378710039 338.2237122906372 M799.456907582935 241.38593585276976 C800.6509399422445 278.8287581806071, 800.3420220174827 319.4382164985873, 800.5775933838449 339.01023157918826 M799.1027439730242 342.55432185065 C735.0073447702453 337.461766102165, 671.1951382020488 340.0142812810838, 622.9807557063177 338.05869966279715 M801.297063050326 340.53050228441134 C748.9272335316055 340.2806795929931, 698.1459026052617 338.4989743774198, 619.3505162424408 338.7695388593711 M618.3100620703772 341.00619917642325 C620.6487157899886 303.1248434195295, 619.4568044204265 262.9692519372329, 620.2239214675501 242.9131601108238 M620.995984596666 339.1724656620063 C617.786200869549 313.8035630774684, 618.7327083979733 285.4961023912765, 619.844860819634 239.27662455523387" stroke="#ffffff" stroke-width="2" fill="none"/></g><text x="640" y="289" fill="#ffffff" font-size="14" font-family="'Segoe Print','Comic Sans MS',cursive,sans-serif">Express Backend
(Node.js + Prisma)</text><g><path d="M621.4764880491421 417.55462013650686 C669.2600060934201 419.75434387765824, 725.1107190763578 418.6072103782743, 801.4467767728493 417.36160220671445 M621.2761187949218 420.53034966951236 C659.9096189108677 418.3186695882864, 703.7375565306284 420.4496592143364, 798.9363518306054 418.63921515410766 M799.872830058448 419.3797513442114 C799.126045041345 436.6442928733304, 800.5384826293215 454.7108563827351, 799.205021972768 501.6156474845484 M800.349940712098 418.98811368411407 C802.2553645838238 446.3144053868018, 802.0170410592295 473.6521540558897, 798.7982239224948 500.06696274643764 M802.26114880573 501.91400139499456 C732.4565382869914 502.81307931914927, 660.8601749530062 497.73502045050265, 622.4901255024597 502.84812923241407 M801.4667833545245 500.0993062532507 C757.3350835074671 501.8138310579397, 714.8766114474274 499.21773270944135, 619.167365396861 498.89507187670097 M622.14824971091 500.16179533768445 C619.139246098958 468.5305843325332, 618.7500345933065 443.4910071240738, 621.9993224693462 419.2949178116396 M618.6498553403653 499.16713477438316 C619.8278422216513 467.07361747836694, 619.2925130436756 436.25837233429775, 621.167082528118 419.2407147861086" stroke="#ffffff" stroke-width="2" fill="none"/></g><text x="640" y="458" fill="#ffffff" font-size="13" font-family="'Segoe Print','Comic Sans MS',cursive,sans-serif">MongoDB Database
(Prisma Adapters)</text><g><path d="M898.2435012978251 240.40163531557712 C959.8905973144152 242.3775636523099, 1015.1273019911674 244.33307917007417, 1099.1594178071687 238.6847858387796 M899.3971273116057 241.1916965189386 C954.3860925135494 244.3011564827775, 1010.1588473564967 241.98099811624888, 1100.1757009980145 240.8078731575425 M1098.4829427907243 240.1314510544762 C1098.147787989676 261.90846711490303, 1101.6348332479597 284.93528385739774, 1097.376665235497 339.0075826784596 M1101.2429738412611 239.59029151545838 C1097.769648582209 267.02635477343574, 1097.601919457782 294.3186959740706, 1100.0188544611447 341.123693913687 M1099.4776133661976 341.1462797297008 C1055.4819299035432 341.96863551365294, 1013.4061625364754 341.3308843135179, 901.7994937818637 341.473760345299 M1098.7728887437556 339.70130782901526 C1022.0741421457483 340.45535365962604, 944.2575891243524 340.0859219991235, 899.0858195065747 339.1185698689005 M899.9864373514429 339.31739149894565 C900.5880267743021 305.2308312924579, 901.0015151325613 274.6017744047567, 897.7747234711424 241.6766755124554 M899.3037260840647 339.16180388676 C901.9020575598813 307.3734243386425, 902.8848916755057 275.0801471960731, 899.489304236602 239.2048050169833" stroke="#ffffff" stroke-width="2" fill="none"/></g><text x="915" y="288" fill="#ffffff" font-size="13" font-family="'Segoe Print','Comic Sans MS',cursive,sans-serif">AWS Auto Scaling
(VM Pool Orchestrator)</text><g><path d="M900.5580457401117 417.6042049284216 C959.0290851658284 418.80501558367285, 1013.6186082141439 418.34859294317596, 1102.416618134969 419.74406109317357 M900.3457028868704 419.2061701244075 C964.1133368418202 421.0007222507534, 1027.4736133807191 419.84241425998147, 1101.3086576936316 420.14049529598213 M1097.0930555230007 420.883150764741 C1099.9005429390165 444.99486047262326, 1099.4621958676073 464.8041495643556, 1101.548308498226 507.3995178723708 M1099.1360069704242 420.1924693468027 C1099.6378283936997 438.0615444649011, 1099.5406936694403 455.6317185019143, 1101.2394849997945 504.1804250809364 M1102.3200955971074 505.57000796794273 C1051.9950154814658 506.377874377829, 996.3226105051463 504.2726489298103, 901.3579393547768 505.38427843278544 M1098.9256326048064 504.3132426120675 C1031.4718576726232 506.9093174884861, 965.6764523892692 508.5068751825725, 898.9209885074749 504.2315463206389 M897.8246249919757 503.47298766020685 C899.39213180325 479.00694452179596, 900.6083200254199 448.8642742242664, 899.5501244729385 418.0584332132712 M899.9575968277641 504.1564729991369 C900.4722092198488 484.473173876293, 899.9732066290733 462.5018074125983, 900.811525945086 419.168895247858" stroke="#ffffff" stroke-width="2" fill="none"/></g><text x="915" y="458" fill="#ffffff" font-size="13" font-family="'Segoe Print','Comic Sans MS',cursive,sans-serif">EC2 IDE Instance
(Running code-server)</text><g><g><path d="M237.19185907859355 290.229582789354 C269.188742688857 291.0058662902564, 299.68264797423035 287.8187066625804, 340.30442486424 290.8926217285916 M241.43812872609124 289.911737150047 C275.2755060712807 288.86828919826075, 310.3367160237394 288.8722252952866, 339.71298325201496 289.4145580143668" stroke="#ffffff" stroke-width="2" fill="none"/></g><g><path d="M337.75348726287484 290.18366623148324 C335.9744521426127 292.89878047158356, 332.89782599037926 292.15582414104983, 325.5065639873458 296.94479085981175 M341.150502980873 289.9293897200376 C334.390781360906 292.67461262391066, 328.51298294599906 294.90906854865625, 325.0334106975658 295.7623398884318" stroke="#ffffff" stroke-width="2" fill="none"/></g><g><path d="M337.75348726287484 290.18366623148324 C335.78403539849455 289.28523772836934, 332.70740924626114 284.9287386546215, 325.5065639873458 284.4834039059349 M341.150502980873 289.9293897200376 C334.19649559939546 288.21199852966083, 328.31869718448854 285.9838403601566, 325.0334106975658 283.30095293455497" stroke="#ffffff" stroke-width="2" fill="none"/></g></g><text x="245" y="276" fill="#ffffff" font-size="11" font-family="'Segoe Print','Comic Sans MS',cursive,sans-serif">1. Request VM</text><g><g><path d="M519.763649421744 287.12123700696975 C548.2303803348914 287.76581691391766, 578.004075168632 287.89864857681096, 617.9236408947036 292.069628235884 M519.492132036481 290.70553297689185 C540.8642420698889 290.35521083595233, 559.1366497450508 291.65012908997016, 620.9718603924848 288.67300563445315" stroke="#ffffff" stroke-width="2" fill="none"/></g><g><path d="M619.8109195373952 287.6969896055758 C615.0207518984581 290.99796306249823, 611.3671055882462 292.91105578567164, 603.6019368117167 297.8863960656456 M619.5937056291848 290.5644263815135 C617.712332447278 290.9459343243185, 613.305260064098 293.23311146580005, 606.0405124099417 295.1690979845009" stroke="#ffffff" stroke-width="2" fill="none"/></g><g><path d="M619.8109195373952 287.6969896055758 C615.2026522829591 287.38430827678064, 611.5490059727472 285.6837462142366, 603.6019368117167 285.42500911176876 M619.5937056291848 290.5644263815135 C617.6204578179247 288.44344924778386, 613.2133854347447 288.22814131273077, 606.0405124099417 282.70771103062407" stroke="#ffffff" stroke-width="2" fill="none"/></g></g><text x="525" y="276" fill="#ffffff" font-size="11" font-family="'Segoe Print','Comic Sans MS',cursive,sans-serif">2. Auth JWT</text><g><g><path d="M712.3354397648945 340.0128912245855 C707.5943191169575 365.48794430401176, 707.6480874835328 386.14054006990045, 711.5428569251671 417.2466347431764 M710.5461353468709 341.4993288037367 C709.0330426062458 358.6559187960811, 709.1643551106565 377.72365352185443, 709.2307375329547 420.9314532545395" stroke="#ffffff" stroke-width="2" fill="none"/></g><g><path d="M711.8683518119157 420.01031297966836 C706.9358508694636 417.6666660200173, 705.1719821486132 411.35524322133654, 705.0035920631952 403.0603318904949 M710.4369082774967 421.19946304298935 C707.7756920015672 415.8085431222132, 706.3634252802984 411.88847191522996, 703.1538965494253 406.00818669958545" stroke="#ffffff" stroke-width="2" fill="none"/></g><g><path d="M711.8683518119157 420.01031297966836 C710.5496176976844 417.44704604361806, 712.3995158050551 411.1356232449373, 717.4649790170721 403.0603318904949 M710.4369082774967 421.19946304298935 C710.810325451162 415.69240897631255, 712.4326921794881 411.7723377693293, 715.6152835033022 406.00818669958545" stroke="#ffffff" stroke-width="2" fill="none"/></g></g><text x="720" y="386" fill="#ffffff" font-size="11" font-family="'Segoe Print','Comic Sans MS',cursive,sans-serif">3. Queries State</text><g><g><path d="M798.907230108045 292.9045454422012 C826.3136556269601 290.8857181612402, 860.6469295574352 291.6585324052721, 899.1620729556307 288.4236412504688 M798.6001386572607 289.2931246305816 C829.0417140671052 289.7290541113354, 856.7365171876736 290.60593667933716, 900.4896146734245 290.1899008746259" stroke="#ffffff" stroke-width="2" fill="none"/></g><g><path d="M899.125784086436 292.32363635376095 C893.5619613404884 291.46579711178197, 893.5542747143193 293.8909879423697, 884.5926824604584 294.96960647731345 M898.8801109258086 289.4344997044653 C896.0606442584037 290.51138624845504, 891.1002335770587 292.99628321418396, 885.6547158346934 296.38261417663915" stroke="#ffffff" stroke-width="2" fill="none"/></g><g><path d="M899.125784086436 292.32363635376095 C893.5912761215487 287.85191824105766, 893.5835894953796 286.6632302009211, 884.5926824604584 282.5082195234366 M898.8801109258086 289.4344997044653 C896.1735918933653 286.94460442580004, 891.2131812120202 285.86271956887396, 885.6547158346934 283.9212272227623" stroke="#ffffff" stroke-width="2" fill="none"/></g></g><text x="805" y="276" fill="#ffffff" font-size="11" font-family="'Segoe Print','Comic Sans MS',cursive,sans-serif">4. Claim/Spawn</text><g><g><path d="M1001.4790204511955 339.7961996598169 C1002.6553699824586 360.46841045003384, 1001.2669192108884 387.7624273849651, 1002.7812889860943 419.6006477577612 M999.6541419676505 340.08692045742646 C997.3548335134052 367.37072091782466, 998.3677847235464 392.8530253493227, 998.7484918138944 419.44834849471226" stroke="#ffffff" stroke-width="2" fill="none"/></g><g><path d="M1001.1832163609564 419.8369597278535 C1000.0204710275945 413.51623178376803, 997.1027149537243 412.5165300445572, 995.994337711937 404.94354230216277 M999.7233135741204 420.0695363659412 C997.1951409403795 416.02501825423354, 995.9560368106348 410.51186923568815, 992.7680999741771 404.82170289172365" stroke="#ffffff" stroke-width="2" fill="none"/></g><g><path d="M1001.1832163609564 419.8369597278535 C1003.634461940822 413.56339436197436, 1004.3306967801797 412.56369262276354, 1008.4557246658138 404.94354230216277 M999.7233135741204 420.0695363659412 C1001.2940711360947 415.9701500867981, 1004.1538972020652 410.45700106825274, 1005.2294869280539 404.82170289172365" stroke="#ffffff" stroke-width="2" fill="none"/></g></g><text x="1010" y="386" fill="#ffffff" font-size="11" font-family="'Segoe Print','Comic Sans MS',cursive,sans-serif">5. Provision VM</text><g><g><path d="M899.2203243177385 466.07514155097306 C688.3060093769244 427.1746198718883, 475.74456765534353 388.58648055535554, 170.16020200662314 330.3110617060214 M900.2832581112161 465.3522865137085 C628.1622984415701 410.34021202016254, 356.8507822451031 360.3531229689494, 170.00294758174567 329.48271844591943" stroke="#ffffff" stroke-width="2" fill="none"/></g><g><path d="M168.44064863547683 332.1502831019461 C175.6129406214427 329.55082550382514, 178.45671659360093 329.681374096121, 185.9447046091939 327.17520727040676 M170.56651622243226 330.70457302741704 C175.81494078611078 329.3677623912556, 181.58448293945824 328.45384769822454, 185.63019575943898 325.5185207502028" stroke="#ffffff" stroke-width="2" fill="none"/></g><g><path d="M168.44064863547683 332.1502831019461 C175.07693843261262 333.1126252677004, 177.2634967326099 336.79701756871833, 183.67862535632247 339.428821008156 M170.56651622243226 330.70457302741704 C175.10144654233667 333.88524300444334, 180.0288359640531 337.5251912306025, 183.36411650656754 337.77213448795203" stroke="#ffffff" stroke-width="2" fill="none"/></g></g><text x="320" y="422" fill="#ffffff" font-size="12" font-family="'Segoe Print','Comic Sans MS',cursive,sans-serif">6. Direct Web connection to VS Code IDE</text><g><g><path d="M900.6226011374965 439.57950809504837 C869.8304876342415 410.3235706981271, 837.9965052392333 386.0530463285744, 798.0197210470214 341.95466077234596 M898.7621485884301 438.6745121111162 C879.7121734042652 418.4533304854296, 857.1729569473304 395.7693531516008, 801.2662460948341 340.965243734885" stroke="#ff5555" stroke-width="1.5" fill="none"/></g><g><path d="M800.4669508531224 339.6846310712863 C804.448129726784 340.1699357125598, 806.3565101111898 345.35500092800936, 812.4145231649271 347.10491744197435 M799.0716114413226 339.00588408333715 C804.022692898065 341.16963032271036, 806.1728770595636 341.4406376955117, 814.8494169507866 346.36285466387864" stroke="#ff5555" stroke-width="1.5" fill="none"/></g><g><path d="M800.4669508531224 339.6846310712863 C802.1845142811236 342.6551153926566, 801.6969859774815 350.2360892961539, 804.1537126479809 355.36572795892044 M799.0716114413226 339.00588408333715 C802.2709326425366 342.9359952641459, 802.6505106730085 344.9776087679739, 806.5886064338404 354.62366518082473" stroke="#ff5555" stroke-width="1.5" fill="none"/></g></g><text x="805" y="425" fill="#ff5555" font-size="10" font-family="'Segoe Print','Comic Sans MS',cursive,sans-serif">7. Heartbeats (60s)</text><g><g><path d="M797.194391480647 312.4711623126641 C828.4802062110975 313.5255206558853, 859.9326383350417 309.57830006219444, 901.638937077485 307.13166727963835 M799.81615189882 309.4683079379611 C825.3966580615379 307.87674066210167, 851.9362520729192 307.91755185807125, 899.5251232353039 310.2236913549714" stroke="#ff5555" stroke-width="1.5" fill="none"/></g><g><path d="M897.8957936104853 311.85337173449807 C895.5188205556684 312.74874657146415, 893.3477887512147 311.48254692654183, 887.4132878980705 313.69002559435853 M899.862113924115 309.6012309534708 C896.1834075249695 311.24376487551837, 893.2586961841581 312.7758254244269, 885.8279275164347 316.0090436508583" stroke="#ff5555" stroke-width="1.5" fill="none"/></g><g><path d="M897.8957936104853 311.85337173449807 C895.6807769661542 309.3603149707725, 893.5097451617005 304.7056837251585, 887.4132878980705 302.007475325099 M899.862113924115 309.6012309534708 C896.2527658686425 308.24086057165556, 893.3280545278311 306.7700168167014, 885.8279275164347 304.32649338159877" stroke="#ff5555" stroke-width="1.5" fill="none"/></g></g><text x="805" y="330" fill="#ff5555" font-size="10" font-family="'Segoe Print','Comic Sans MS',cursive,sans-serif">8. Idle Terminate</text></svg>