<svg xmlns="http://www.w3.org/2000/svg" width="1168" height="823" viewBox="56 21 1168 823"><rect x="56" y="21" width="1168" height="823" fill="rgb(31, 31, 31)"/><g><path d="M79.69126454079651 640.3551595184566 C79.69126454079651 640.3551595184566, 79.69126454079651 640.3551595184566, 79.69126454079651 640.3551595184566 M79.69126454079651 640.3551595184566 C79.69126454079651 640.3551595184566, 79.69126454079651 640.3551595184566, 79.69126454079651 640.3551595184566 M81.65172789638055 654.061975508934 C80.91242732182675 648.6014736570382, 86.87491593908841 645.7848572915636, 88.67711190586006 639.0919293990987 M79.8976467279823 652.4098957564738 C83.95050912862014 647.0141963687414, 87.13353860768643 643.2576375784396, 89.73214353662944 640.9237782674538 M80.54534602735316 663.6829542795696 C85.0671303427209 655.9700790221248, 95.43177378237357 644.5703486304341, 103.61854373309694 641.8462728462891 M78.85990017896643 665.5264068034977 C87.60519590492532 656.2222399599931, 95.47648998585726 647.2546398602584, 100.35766303604402 639.8741454045066 M78.4408033734478 678.2846862121496 C93.0247563963639 661.6271531638504, 103.77371675666609 651.9332413195784, 113.68754790662615 641.6453441756637 M79.39884326488823 675.8282859327282 C91.53178314867358 663.8585086800664, 101.77138264962451 649.8274227512226, 112.29651374728246 641.0354384964191 M77.80936424279696 689.0665891576082 C91.0290134526992 672.1126833299452, 106.1012741298992 659.6847600833088, 122.00800643348799 639.3975052190885 M80.41497207697591 689.3623528099142 C90.935178822464 677.7544341717879, 98.95960846550985 668.6272156810138, 122.89051344152273 638.893290063826 M79.95959973336312 701.4442308504647 C100.10250202776419 684.2703077029703, 114.90088504507158 659.5818788983449, 133.84630725313542 640.9149813183606 M80.8390043196373 701.1830148912547 C100.39921685421177 676.3526542102898, 122.61280736455117 651.9844396614112, 133.19274744591308 640.9295268889539 M78.64970334258044 710.4157299720706 C97.76953797419218 693.6863304298524, 114.72542605102373 672.4697750357748, 143.73153361752165 637.5754275027767 M78.75879962800184 714.6025235485309 C94.58595484116181 696.1577957525959, 109.88507189805273 677.6983802837157, 142.80464093135205 640.5385734102794 M79.68238679341152 728.0587636319456 C110.6653608643384 691.9858158239028, 136.37297044142332 662.2087303627521, 155.98671409109977 638.2906784891337 M80.46738039397746 724.4848565504421 C95.9199493233661 708.681883648115, 111.11888870572659 690.3592106095225, 155.36033391248804 639.2930767225288 M82.06036615030945 734.4804790468864 C107.58184544927781 710.4767033140944, 130.10751642126118 679.9886486267711, 166.26007255082288 638.4754986817285 M81.57154288221255 736.4925047417149 C104.53897808239928 709.9186742802807, 128.21695641418728 681.2396192614799, 164.51105624771947 640.7095315766788 M82.86155279022745 749.5409531211901 C109.58964725777636 712.9942179401218, 143.82280464649637 670.6449500673646, 176.05627818614417 640.016332172358 M79.32017320110566 749.6068066233258 C104.24028736769735 722.1763550094629, 128.8840450758092 694.6144731558454, 174.4095026391948 639.5139053799562 M79.11424437362803 763.5766520268762 C113.35008455296187 719.7292375168772, 150.89971820763543 674.9414433050819, 186.26769549901667 638.240052740319 M80.4325632738146 761.1482829327242 C108.77718301057345 731.6096019719876, 135.6706774242645 698.6368945829232, 185.69420763281244 639.4072631958372 M81.95261096044544 775.3503428827962 C124.82188835189633 725.6125222848043, 166.52106598399547 674.0826198125962, 193.70563430389362 641.8827138524084 M80.70702195421893 775.5234233229412 C118.60791704608378 729.2226426383381, 155.81687001030082 687.6754422866192, 197.9739206182209 639.3313927440486 M79.2115908361422 786.5481012359694 C110.99763041453924 753.6968831445163, 137.7344890901749 718.6897772288813, 208.6315997277281 642.0582986629231 M78.56889585297648 786.0185688439258 C122.5202754050197 733.2492147014934, 168.30997131099565 682.9701201495135, 207.81198082881855 639.2344294005668 M79.64395136112223 797.8070011400428 C132.1874715456771 733.8420534776259, 190.11480423544182 674.4941900614567, 215.59123364605662 638.4234291972897 M78.84615276128694 798.5290824905517 C123.27941683485928 749.8519865385499, 167.61412849354818 699.2526185688753, 217.28908039035926 641.1696374301474 M78.73929049958058 810.9617890554758 C132.00759539747898 748.9541184245331, 179.1670116455721 691.2699208572368, 231.01354760268035 637.5542474787566 M78.9750625920124 809.7779864319848 C141.3677338257604 740.9750039714002, 198.56355843461148 673.3605791821988, 228.5837746317259 640.7485905367507 M82.71864471078008 821.5958716962621 C125.71218527049055 777.8246181081236, 165.22334056689658 728.6364598924443, 238.9086830563289 637.4189822446622 M81.03583288985295 820.0321217229917 C130.56792184370775 768.1414499628605, 176.4968365936717 715.1407507029685, 238.4407615941485 639.5326973351453 M94.75777911082672 820.1086592460521 C139.37535156072948 764.6913514939491, 182.97298658948853 716.1213123078636, 249.08936444483803 638.1731658652855 M93.12409095770477 819.882589895904 C152.42330898858276 755.4610708956918, 208.98174623070696 687.9215457312666, 249.58722658544795 638.8801772475891 M101.3833916908183 822.683662920554 C164.5115903298795 748.5566986849278, 228.53334434272995 679.0038646395143, 262.7217759944322 638.6590552261601 M101.77563747814078 819.9921127639523 C164.3465669168253 752.0281852346844, 224.66857257757175 681.7655356471372, 260.02289834393736 638.7373661875358 M115.64575773316466 822.8462879168505 C159.91352184531453 771.482944270428, 205.31801232701855 721.469578979981, 272.4053018136931 640.3143556669471 M112.67740003310088 821.8640441382635 C148.7955889921276 780.5315842534613, 184.21585167443806 740.6999472889205, 271.3833431165955 639.9911860666982 M122.58595179957216 821.1553663714773 C177.64313445689785 757.2524971556371, 231.35669765889511 700.4150263579701, 279.2131284779991 638.8763032792599 M124.83809051800114 820.7312216571125 C169.23946144778986 770.7678031445091, 214.23556581584774 718.6417372870421, 281.00863437012765 640.5001082176874 M136.34307541854434 821.8439086729228 C183.15193383070556 764.5772768151115, 233.30508066210092 706.626110207509, 292.30163471702554 638.5217582191657 M135.1583457979845 821.6100506296731 C181.36691837520652 765.7826788974592, 226.5924045269901 713.8616530469423, 292.7632584472159 639.8986602377629 M144.76571477288135 821.9601367741292 C188.2517210347447 780.7250588576254, 222.46559353030196 737.225868566861, 301.0208151022445 638.5083320196843 M144.25082136417024 821.6058568797671 C206.62121860639664 750.9619672418571, 265.68188204523995 683.5260743642124, 304.10691322276847 640.6520738325826 M156.5203854265195 823.0122342394961 C190.5140645554349 785.4147965582885, 220.3904301875675 746.560704781816, 313.8680447825539 638.065003114176 M156.0103428607218 820.9676398183424 C198.27019566234654 770.9831461293766, 242.88642305481665 719.2328368378177, 313.76017146702867 641.1175013968946 M165.6959703104122 820.085354718825 C222.4754070826611 755.5048489827651, 275.6321089535627 694.1322697721012, 323.21279713424667 640.0359105740811 M165.9339559590938 820.3898518275482 C201.30567188376673 782.0231701004004, 234.52187650901277 744.9879489058994, 323.8911583439578 641.0734037409527 M178.93394178662274 818.5290553785287 C230.34058197451608 758.3439706964183, 285.37534805726136 697.6551361028246, 335.9945503587017 639.5054495429013 M178.19843807703543 819.5728034895293 C215.93767526757568 774.597479508461, 256.553751085974 728.7141433086252, 334.5138799215236 641.061994117852 M189.99794826157225 823.066714561796 C235.8298788466696 767.020290228439, 286.7651617079267 711.0352969677958, 343.4108915209337 642.4714673427311 M188.9606980310631 819.5250544535899 C220.82532067203493 780.1177547765092, 253.7979091739115 740.2872392560339, 345.6710299931953 640.4174098811933 M196.91536065652528 819.4025238344713 C252.67638273806753 751.2740824239502, 311.99512949461194 689.3076391494687, 354.93495037580124 640.6876023433216 M198.44934063652084 821.1169542014559 C239.95772318654292 770.8796655553765, 285.1372100059133 722.0999953304358, 355.0973148637704 640.3316755044999 M211.60550638259008 818.4487416100555 C254.7123862971932 769.3754839663488, 297.1000944266246 720.2842809709492, 365.360224543006 638.3561927870799 M209.28168272008102 819.8751334347752 C269.58275151423885 747.2023803361494, 330.1248170489229 678.4781690913767, 365.3036417618741 639.9016471687164 M221.914681715719 822.9008483747061 C259.8189976903297 774.940279419755, 297.8284818318511 733.8520140621927, 374.4484390820942 641.2475896140695 M221.02340953224422 819.5637934626178 C275.45029546314555 757.28575293487, 330.76863585136937 694.0954983816586, 376.88432205246016 640.9431297497096 M231.30326257170796 821.3666723122366 C292.52614485750485 748.1127207382181, 351.5693422811587 678.941986433524, 389.0430612674556 638.3047500870102 M231.01049715983905 819.4644783889753 C261.09761402978916 784.5282668142601, 293.7844176618922 748.2024187684128, 388.0865404493105 639.0280086057679 M240.91996808119643 820.0691109291164 C280.2165287339906 778.0598611421655, 317.32128628547946 734.9760252837268, 397.6288449633233 640.8606786162779 M241.43340093852217 820.4426453002613 C290.9658165457716 765.7692285423152, 338.21415973240136 711.3868006230117, 398.13718382753467 640.8228985651019 M254.220281764668 821.9458182794718 C297.61466725285044 765.9355562027987, 343.1244084242775 714.8957607022678, 407.51403499877466 639.193956384905 M252.64425866527856 819.7421556528112 C302.4508707503063 763.5314871348933, 349.48148822549473 709.7777991255463, 409.31721683607094 640.0968373133439 M264.0505279074496 818.273424190085 C311.5501079628222 766.540718196056, 361.42093912453794 707.1372613627901, 419.38991154273043 641.7461821735799 M262.726359810921 819.5567518603826 C306.6815927209525 773.6973569714429, 348.94514323041057 725.8549183286308, 420.2688851101852 640.0697471810483 M272.29573113471236 817.8653494853944 C315.514019218196 775.3535203648447, 352.4758512193268 726.0596560071205, 429.4443048789555 641.6971275856472 M273.3258807325909 819.3196422816544 C305.49329495881966 782.3079019249443, 339.44114724035336 743.9928849452859, 430.57499728397187 639.4397541311909 M281.9735055864707 818.6567740124948 C335.7955962129821 760.5430282611676, 388.3571122147813 699.5578335150896, 438.9898293810579 641.1527394721081 M284.2115410862572 819.2651650077278 C314.13219270742525 783.8051288205019, 347.47931782783746 744.7174790288514, 441.58084740285307 639.7022111466697 M291.83285049258313 821.873013466137 C331.7748968930807 779.388640428895, 364.8265028992448 738.4876726209152, 451.56758548749 637.7595463566196 M294.09652623921744 820.2330920496256 C328.35924290679105 781.2884605697183, 360.29487417665166 745.1079468306522, 450.95387133607943 638.6917364178045 M303.47747774775195 818.6439258137283 C351.43961445548933 764.9706865031886, 392.8775911897747 717.6129419324291, 462.53614247654787 638.8730352604952 M305.21776928259715 819.7155739257928 C340.9730335317553 777.811523920746, 378.19361596240367 735.0421206367231, 461.0202883892298 640.406143129837 M315.30772164263846 819.9584471620241 C370.5910983204367 758.2390066180088, 427.0897044172876 692.488375463894, 471.20696224492025 638.1557884662034 M315.9849138562565 819.9329347221683 C356.4077676164883 772.1848551049444, 399.27315857845315 725.4625473448282, 473.3228089292255 641.0313625643729 M327.25895441779585 820.2122876768524 C355.83224883968916 783.8419582991556, 388.0828056155001 745.0707288405365, 485.44646718932614 639.748806779282 M325.6895025316887 820.8516233981877 C367.3743678880021 777.5064325967797, 407.3313620505768 731.2394537279067, 481.93965969845425 638.779392902348 M336.48226385348886 820.92725291588 C382.74851399879594 767.8416314044936, 430.1384533410458 713.6247952856131, 493.7778552636892 639.908871256318 M336.37974450046414 822.0294430604197 C386.8884209034168 761.0542298402816, 440.1996799093751 702.7433073946662, 493.06451405024166 639.9204009280434 M347.0683011891588 819.3541939316581 C395.76142473663276 769.5797255417433, 441.14992052316063 715.9516562589396, 504.9961906586223 641.1429829674411 M347.55871783475743 820.6461796235068 C394.83916916483656 767.5043764618835, 440.7272701437939 714.4542821654045, 503.3209196593008 638.5959567191875 M359.00386806854306 818.3711915911912 C408.36666854051583 759.6754352246858, 460.57570828180326 697.3081360797032, 515.2773831565349 638.8514766097338 M356.3479983577188 822.0636843917397 C387.4042024087609 785.5015735316906, 419.6142501659914 746.7530556203445, 514.3334568575714 640.3717613369068 M370.2812122271765 823.1243078884368 C432.96978411351995 751.8900548236008, 491.1449307353952 682.789440391163, 527.7868258191339 640.4679258197314 M367.0576122997256 820.8812739028077 C405.9167235038087 778.7756225865708, 444.82412365457577 736.7305759739072, 526.0483022904697 639.5431876694764 M376.5074171798909 820.1689952568056 C439.6144399966732 745.706364281764, 501.1632820253889 677.4093060632925, 534.7894426749225 642.1006464859231 M379.50678795463176 820.7396727715485 C423.45845765304324 767.709003129499, 468.9845666151268 716.2886252012788, 536.3035575731386 640.1891762760703 M388.0105498888314 819.10592902228 C434.6208728632533 766.3035223000481, 480.7828317549474 711.918289817015, 546.6028890784853 638.4238489530129 M388.5928627540815 820.3755331116467 C426.54668870868727 777.6366108108654, 466.93859155595084 732.86888371045, 545.993064260412 639.2300685318622 M399.46215447132175 821.7410293120197 C444.6885156165088 776.7510634993433, 485.5219066874305 726.5378357367489, 556.3267877337076 641.3198156785536 M400.1184749310233 820.9297923633642 C434.47290316274655 780.4011620702729, 468.5272503276772 740.5823099642155, 556.2613129255545 639.4723217224603 M411.96747541629605 818.6794918658748 C453.0056651309988 768.368545733791, 500.8897796506621 715.9356142452449, 565.5249999459205 638.4975111076872 M410.3461606701861 819.4909439920026 C463.1180586916829 757.0552343084821, 519.3314658013938 693.9326203042381, 567.8908431144538 641.4303233770764 M422.6805910817379 818.534149300471 C484.0523739488734 749.1775558998106, 546.6906160106839 679.0552889931135, 578.9617249817014 642.1925865859457 M421.8394204498051 821.424225672647 C461.01675668075916 773.770554564977, 499.6876495456729 730.1197844767615, 578.4854895572978 641.3584480000927 M431.9234057904741 819.5092632050904 C482.1128653088072 761.4532060412062, 535.4086322298386 704.80185370483, 588.5219314474712 638.9678490565174 M433.0142266219429 821.389091037805 C473.29143803856505 774.123731835482, 516.1261880157641 728.6178941075673, 587.6464073706028 639.3259153408131 M442.79425820517565 818.5590881666718 C479.1230794550003 777.0102696330765, 522.5305975587054 731.7326140190695, 600.3739360644945 641.4552338852474 M441.46585222499084 820.6778586649057 C485.3460470778136 771.6595762969821, 528.1558892835268 724.2600113235319, 599.0464476697128 640.2735477809643 M453.2618105033575 818.0415293948097 C500.4821776309617 769.0846142756693, 546.1026939054673 713.8219195141971, 609.5289480438798 642.4064280856363 M453.5579657961683 820.7577502638001 C509.17835096372204 757.1063947710733, 565.6816183995367 692.2613732333509, 608.7275479813005 641.2935425221939 M465.7932823523776 819.8472683467551 C501.4317781549089 779.4584910080185, 533.874914565515 742.3865138515757, 621.9938350615789 641.3857791438417 M462.7003961840223 820.5702884642611 C522.0735957437845 753.2636440364987, 581.2370354149797 684.3379156980168, 619.6996398558659 640.2009481735715 M474.4385272844385 822.0337947524154 C529.5138752523535 752.5489420679638, 588.9628132298403 686.4627267246808, 629.3306676333882 638.8994206436769 M473.9676657609285 820.0929606034838 C520.2240019909545 769.1865940921724, 564.4754445670667 715.3147366805141, 630.2380392802382 640.3477817390893 M484.4778922715858 817.9643450393537 C520.3531097833148 779.4985709962722, 558.2175822519753 738.2068892007819, 640.829110689947 638.0391170916115 M484.8816616355906 820.1435229135845 C536.4718471906554 765.4046899092839, 585.0651682154048 711.3696002519202, 640.9676350900737 639.1552540051605 M494.49648130070943 817.99099835779 C532.6350429264824 775.7508735582257, 572.255328436695 731.413297558387, 653.0561551517388 638.6113895417716 M495.0007304655403 820.9318515091021 C555.9984004746848 749.9017800329165, 616.2573783751491 680.2325306182898, 653.1799049823574 640.4426057281206 M506.0123893485424 818.5347382056002 C570.5857902172914 749.8934340564475, 630.5048890178185 681.6081780376242, 661.9892583040908 638.7813604209396 M506.74160086963724 819.359340174497 C538.155690416488 781.9145026688011, 570.5497856758899 744.104083996052, 663.3925719279022 640.4544266217272 M515.5705915566622 818.7587356533168 C562.5869146158012 768.2039175947019, 607.6469453589096 716.2143734317368, 672.6445777721738 639.2215047535535 M517.4341334405697 820.0952833516515 C557.159198795601 774.3017580077453, 599.1352026113133 727.6432428845179, 674.1911521838493 640.1894915446591 M529.3809900064897 819.7072877691278 C580.4863659040399 752.7369064925075, 638.1584121050503 689.9418531888228, 686.1610478960024 639.7456821867084 M527.6579623573537 820.3517419273696 C566.7966184238078 772.1011505547638, 607.0407178430021 726.6907172608427, 683.778798906168 638.9427986880175 M540.3828644942893 820.9398496438782 C573.1703635233417 783.3824128609367, 601.7825039670305 746.075676592516, 694.3991753054353 638.4480754151554 M538.3070581978334 820.9599262208776 C596.2605505784751 752.1122063710769, 654.1053231047358 687.4543426354546, 694.3129437621556 639.1196865628254 M547.2383970465353 820.4257503870712 C595.5611359635905 766.8898524365705, 640.7954785886214 715.3944706879739, 707.1005251758137 638.3597873447349 M548.2503846782549 821.9174811299715 C585.0641786827083 776.8637056779882, 622.0373040494484 734.7218457652062, 706.4631357523435 639.7779750170464 M559.0611413440199 823.1789771689396 C617.0992365869188 755.8778655620976, 674.5489724475955 690.2669446994054, 716.4425864405206 641.5597389100831 M559.0314094521119 820.4369608748937 C602.6066460490238 770.4970007623975, 646.0308311663106 720.5354735952654, 715.2341397942525 638.9383749049426 M571.0661617123187 819.9114862198072 C634.174598732154 752.8282518566801, 696.899713472031 680.8371578553848, 729.1780914837442 640.8437672584074 M569.2489972077278 820.2654131119492 C634.5837020493506 747.2302203138078, 695.240717388872 674.5833669556081, 727.0416157067451 639.6437537306201 M579.3219500979039 820.6617336976941 C618.4001159949787 773.65038610459, 658.8609885274819 727.1490216617784, 736.2365653281288 638.8507044403062 M579.2533621325114 819.7276002342958 C638.4698188464826 751.7944606764461, 698.264496438045 683.0735127914672, 738.0281722172687 639.7586861128229 M589.6988759765445 819.6899604500732 C637.5674249733466 764.8125199868329, 691.2587262326833 706.1729038075031, 749.8333537131151 639.7061430083304 M591.3099296023474 819.7836835872398 C647.2556162864967 754.7974394616328, 705.381803493985 689.2209363730684, 748.6343521479974 640.5253052161931 M599.9792340408062 822.1178153263706 C645.3342898385797 770.4236567286587, 688.3078448879821 721.8565280276879, 758.0807047824406 638.1634693294845 M601.6699468378476 820.084059311986 C664.3648577123749 751.292332272259, 728.5330791721399 678.9620835726756, 759.4191020720818 638.8682795950218 M609.4614281965376 823.0743991364258 C665.2182567671408 760.0715467750875, 717.4029482667925 694.5921649216998, 766.435022364682 642.0016273795741 M611.3894075835042 821.2750018023562 C643.0044987462092 782.381827219043, 677.8333205210336 745.5273238201431, 767.4717260746922 639.2014476818122 M621.0905803848927 819.3104685218511 C668.993256093873 767.4942782264878, 718.867570270781 710.5665988966518, 779.9549300651 638.1274291501412 M623.4061668003176 821.0489466959465 C667.3091291836967 769.5329127765926, 710.1978104015393 717.9907107692527, 779.8691951071112 640.2255512706672 M631.0299618205706 818.3945450283499 C676.076586538378 768.6744845593756, 716.8598756176642 725.3356357897964, 791.4263168378162 638.7943890382904 M633.3422545511904 821.4575735768459 C668.6178572901961 782.1910033723682, 704.4103315528267 741.0153167608676, 789.2798675511407 640.4892015241629 M645.8148188732733 820.3019373483287 C696.370959313504 755.4410385489153, 753.0936365454443 689.3878406495495, 798.6343800361269 642.669099990335 M644.0999696897481 819.9538938009988 C692.1459668696905 770.4808577954503, 735.2958345781176 717.2911151050308, 799.9477816748598 640.1937128650408 M651.8995613525472 821.5661540718515 C693.1020119137498 775.2338927680659, 733.7882537697366 729.0973470400287, 810.8296454281716 642.2366134752446 M654.1601088059446 821.7196802192722 C704.9983260057459 760.7190538643852, 758.5493902164663 697.812709764676, 811.578055995175 640.4980860984641 M662.8595924827816 821.9325613116381 C708.6237583395881 763.8894212216511, 755.125973669646 714.6541753295742, 823.2875115719337 637.9688163096455 M664.6661546385616 820.6829733649547 C714.98096940729 766.3054523468563, 766.6708060165201 706.6538262273219, 822.6637180903214 640.8184061995188 M673.9116020782097 818.4875083280642 C737.9495413961716 750.5731786421064, 797.0604528976932 679.1269629547554, 834.4512029902401 639.9682754828199 M675.2363856877085 819.3616368412565 C718.5868135544486 772.9655208029238, 760.8018882459666 725.2706443369565, 832.5600802123614 639.884599700712 M684.0663325179092 822.3316107541618 C739.9627718301043 757.0818113925224, 793.711339735153 697.40657971646, 845.5403785457622 642.0581125817057 M686.038251827324 819.90048910881 C747.8925199282652 750.0710834262103, 807.0957858777414 682.3410917565433, 842.3066616996869 640.5545516794726 M695.7371871208006 822.6499994206199 C750.9810780586854 753.956737893906, 808.0633832184894 692.7016436982274, 852.6450206160142 638.4552870158983 M696.1053903176735 821.3707012731696 C759.0895027378729 750.4361667258988, 822.4568971235747 678.3813972426083, 854.1966581895165 640.8512375456522 M706.8341193206486 818.4150419807829 C766.2783755165253 754.3011742275744, 820.884049575808 690.3728409349294, 866.3732946683546 637.9389728426485 M707.9169078178517 820.8265544723112 C753.8649379688767 766.2806454769436, 801.978130396099 712.0029264128265, 865.0841448303978 641.2817464290234 M720.3918666410616 822.5350941356519 C774.7286306327529 762.067168462254, 825.2015008155059 697.7652283655908, 873.8865616349858 640.4453395918632 M718.1996771982808 820.6244632641327 C762.0116358677651 769.1190358503386, 807.8679787568742 716.3570774649337, 875.9731710947065 640.8842257667812 M726.6442142704918 818.4100292588842 C791.2275553483313 750.4444801526918, 856.4916330764103 678.2746844596934, 883.5963014879535 641.2163034911064 M730.0223387532113 819.4601074139541 C767.9607509312444 774.0668541886273, 808.8719395049696 727.719882177503, 885.3249639911459 639.5370918910422 M737.7012930372352 819.187930421793 C792.1831732334255 755.3379997792385, 842.5251198136042 695.6220050210748, 897.2187512141475 642.4629978905974 M738.587784213222 819.687455282017 C799.5829763201742 750.1464498974124, 859.4501497117521 681.6236811861526, 896.1421164772479 639.015787416345 M749.5845917844312 819.3108072183483 C796.5159887342412 764.3839744773278, 846.3491688353265 705.3507846411542, 904.3737003903007 637.4752732882123 M750.8418771577194 820.8608020109849 C786.5801230496937 781.1993885075683, 820.8629638387681 740.1783595403217, 906.7708842718722 640.2921790271499 M761.8748169450633 818.7025981901759 C794.4269208769338 783.1548057594902, 832.9639962895915 742.9726983199108, 919.7666955579908 642.3244189544836 M761.2463114274383 819.5390737134434 C804.8157404150346 769.1526378674015, 850.1712168131393 718.322130406887, 917.985374267707 639.5815020653396 M769.8057817169588 819.403202851558 C822.5635100590133 758.9473270535334, 876.4117444456567 695.1294939278116, 927.6897077986386 639.8941605575993 M771.3873315369419 820.3622104593996 C820.9685911832318 765.3022043869697, 869.6206793040445 710.7850571476379, 928.7996541437683 640.671196717718 M783.2523139190522 820.4533213826335 C826.6622023878057 767.0989644369012, 872.9493682220433 714.8432773102267, 939.2416256737158 641.6386313133615 M780.1243344630255 821.5794935228171 C821.4386228270558 773.2354359044759, 863.8444293074688 726.0211387193503, 938.5425636316174 640.9459851836442 M791.410020589206 821.5230472804192 C851.4559983052417 757.5117043046658, 906.1189137231768 698.024554654688, 951.8582382262531 641.647417737669 M790.7838728495896 820.6090482540006 C829.3807221156791 779.8641472406712, 866.7927461317969 737.666470675806, 950.1807842143953 638.7202453474135 M803.50978017014 821.5839214373163 C854.9809361692726 758.4856623153628, 907.4022570831058 695.270713325474, 961.4575553855542 638.3138372592837 M803.0465645039845 820.8597644480817 C862.9127775936904 750.1590519206533, 922.4490151242048 679.4401267192338, 959.8812221784377 639.2724245388691 M813.5352020653573 822.5252923668137 C872.6572380729897 753.1328098911266, 931.6437576833893 686.2958025578168, 972.0398997562945 638.4709001592724 M812.6412153538532 819.7702073517336 C857.9251215284391 769.5934088238437, 900.4042260508074 719.3987763658909, 970.3365329289268 639.6590222927703 M824.1780643326581 819.0517201468531 C878.946332102062 756.401060088402, 938.0341465830685 687.8849033926624, 982.798645784946 639.0325560956552 M824.0084619528147 821.8672987262782 C884.9987084641477 749.8024980174996, 946.1895431007855 679.6378924180292, 980.3344894032708 639.7672422522749 M833.9481733716399 820.3227877323296 C878.9796405860409 768.8738330979352, 931.0627958681171 712.0789844374609, 992.729421447278 641.1337874159054 M834.8716641367154 819.8217166914364 C877.3555385957374 770.4588878364732, 923.8529786818267 718.8949825510746, 993.077981727355 639.6197810126897 M846.7857692912759 819.0915785765044 C884.7568997881934 775.7668264867586, 923.6435251564783 729.0801394831265, 1002.083741953538 642.5305651769266 M844.5558448906434 821.7535628434651 C900.3576488024921 755.6751005743616, 954.931819604006 692.2658803736674, 1002.601186834809 641.185808212021 M854.1514904063047 818.3561314372337 C911.5569393095252 756.8164734130639, 966.9217208679166 692.1207161552918, 1014.604822240249 638.6966670983346 M856.0639168270664 819.776328823293 C897.8562647306228 771.1842673031318, 943.3971007241272 720.534926904615, 1012.2057550816376 640.1585385684857 M864.6808498060101 820.4905543105888 C914.336494079508 769.5428475810769, 958.6804667276137 718.8032761967506, 1020.6792711006744 639.049075589815 M866.8843504191068 819.8281858981691 C908.5151753430216 770.4398621163878, 950.6133135254074 722.3091698275987, 1022.6113873671034 639.0533811793614 M876.2446617616564 818.8703146124142 C912.6575501874506 779.4117068684682, 948.5922295424128 740.7232830197216, 1034.6334744396725 638.0028920711183 M876.0715756071085 820.196298824819 C924.9391460915617 768.018841229089, 969.2344514431086 714.4553068591628, 1032.8835215210033 641.4889885931708 M885.5762586343523 822.0593210062116 C933.8065858010921 770.1647768304256, 979.1752711940519 715.9244194816714, 1046.094560426946 642.4219178346518 M887.5736407427439 821.3388327798914 C933.3316920276046 767.348359779208, 975.3040553178424 718.0589616411969, 1044.3588898969638 641.4741258658589 M900.4046312500494 820.3850786281376 C955.0400298487318 752.680659750319, 1009.4742679683683 689.5514371983197, 1054.6676974720401 640.6987156704795 M897.2771498015135 819.4269915474557 C933.694577720856 777.3329722602116, 972.9566324709118 736.0360829947377, 1053.9527225849376 640.7463195482926 M909.0041604745443 820.1463171120058 C949.4193557769836 774.979326484042, 989.3699973387506 731.3965325483512, 1067.0397961993447 639.4671442913206 M908.8586231952461 821.1787601065035 C940.3841093714942 785.0724243643018, 971.2322739800544 747.4559033518539, 1066.2527486237068 639.80898947376 M917.3768215884761 820.2077714142863 C954.6667307564368 779.5491832545159, 988.9195741761149 741.8028127263156, 1076.5488666230933 637.6922327575513 M918.3245285845982 819.8665980184488 C971.0155334458818 761.8759522323054, 1022.5320364716396 704.5983136268552, 1076.8067736133812 640.2406593454721 M928.8215414623284 821.1587458391045 C973.9344467241402 771.1982846781376, 1017.1914268740993 721.4167414680386, 1085.336784122363 638.3336509022038 M929.8626416915546 820.1708076146267 C965.4649960314532 774.2643049008567, 1003.760110681932 731.2029972560673, 1086.7215873278988 640.7419013240609 M941.0379005314285 821.947146063243 C985.302839906911 770.3941492633927, 1024.5187479051958 725.2153384769285, 1098.9480850160746 642.4748349559665 M940.3820771119287 819.1970401837947 C977.4520568228821 778.2312218442357, 1011.7505201284761 739.9229256877446, 1098.4750733275257 639.4445466150805 M950.7445539709471 819.0184175611404 C993.5138673371168 778.3600588857365, 1034.1065361479762 729.0888707245782, 1108.404230137993 640.9472067721842 M950.3548363278611 821.310038559632 C990.4288058140686 772.9453791823083, 1032.480983022712 726.8828789172517, 1107.9709589713564 639.9782556565073 M960.8025592708988 817.9790160298911 C1021.0135541842466 750.8672782382588, 1079.4405152657378 680.4740761637714, 1119.8710900117262 638.5181762518579 M960.8803705203214 819.1511433082394 C1004.5227714941518 773.7724638694955, 1045.0030204224752 725.7249696973505, 1117.8852698298128 638.750290306239 M974.8141718111422 822.7157202142461 C1006.6610506588173 781.7089818407288, 1041.1009868931217 743.650821036492, 1131.7233956257267 640.5055477686448 M972.0025965816068 820.9965673156402 C1020.5445158539752 762.7760239470427, 1069.476183573568 707.564424509819, 1129.7210796971456 641.0317096295954 M984.2069212363793 822.0100383316129 C1015.5288010913358 784.3649061695588, 1048.7966306481223 744.5977487890395, 1139.1631596082902 641.8968329938583 M982.279366327843 819.2503699752791 C1026.6056405417141 773.3597163098249, 1069.1796760646341 724.8217583575199, 1139.6206202039336 640.7224228868185 M992.8912838311561 818.7360232970545 C1045.5285899149435 760.844545970629, 1095.6470472544577 701.0666192224138, 1151.3626294025566 639.0127213214681 M994.6142017114834 820.3076381755226 C1038.0905351936635 768.8992697717492, 1083.3654496787995 715.7590826145041, 1150.4592820295832 638.9422917205715 M1004.344758894862 821.4844919482913 C1042.8079439467558 773.1698792493617, 1082.7041262414773 733.6282354754316, 1161.0140188415091 638.6656438931005 M1003.3012320338097 820.5621796871598 C1055.0721138790047 762.288588710888, 1107.5822760376873 703.2553868964079, 1160.1430053148295 638.8256215434402 M1015.5525242255216 819.4106906911917 C1067.5813756347177 759.7817045055675, 1118.8766038828633 700.1376643291153, 1171.4930335320842 639.7644803364395 M1014.2308710833714 821.9928919614963 C1062.0677052020399 765.6297469912587, 1111.268694689503 709.7563964648062, 1171.198909400788 639.0647125390201 M1026.7621648218114 820.9223851006466 C1077.472980443102 759.43398394624, 1131.7358365097152 698.8964377480924, 1181.435629543106 637.4673832732705 M1024.5377611203621 820.1939184478622 C1060.8357941946183 780.0780958737625, 1094.2007680671024 739.153956085245, 1181.5719640660604 638.7185488061772 M1037.1485650985348 822.3063897046378 C1085.7417689928488 765.1701976911121, 1140.9003200058582 704.3727820712406, 1191.8619276688264 639.8328368170523 M1037.017775058912 821.2030370827334 C1086.9292142124557 766.9886618347495, 1134.6753134161447 709.1954437252465, 1194.217206595935 640.7768592807691 M1044.5291799216604 821.3704677053703 C1099.4709945947511 753.5923909728941, 1159.3198798301844 691.6910831905716, 1202.5200292131378 645.7470150855399 M1047.3184613104254 822.0532847768098 C1099.1238875815066 755.6341222767865, 1155.4928854563382 694.951389908344, 1199.6194006265493 643.2278358720531 M1059.509795812536 822.3730046524626 C1099.9842100731023 765.9354805367624, 1146.154147923396 715.2549952122059, 1201.5587562324329 653.3477660567262 M1056.5400598125002 821.2908933226505 C1094.7663310752469 784.038569625891, 1127.5959529928311 741.7525915378312, 1200.5292491762489 654.569580204861 M1066.8548607520966 822.5216170767548 C1098.373223093694 788.6979843728076, 1127.4827816483432 757.8960499444053, 1202.0496227067235 666.1449795450907 M1068.5575592287423 819.9993328524652 C1103.0722929074234 782.2204108198298, 1138.4735724261889 740.4828753310123, 1202.1234096118626 667.7076967126893 M1076.210294836938 821.1590797552199 C1120.4262887567966 775.0797385513508, 1155.9622152669453 735.6112617961647, 1199.7025073465143 681.0509050492365 M1077.6340902208271 822.1860554721497 C1118.7827044709718 779.6049443395959, 1154.7767028420762 735.7607094510779, 1199.4916118049246 679.9122169724833 M1089.3775751487728 821.8456232373044 C1129.8704426079935 776.7524049579624, 1164.2168210366776 731.3792456467589, 1198.0077890639468 690.2848658331349 M1089.4954672916238 821.6172507933713 C1123.8692462446172 779.6630285704454, 1158.9627210204394 739.2896094288726, 1199.7839862110368 692.0973530139453 M1096.6659997553465 820.2884180545329 C1121.6878292338738 795.8903915088015, 1143.642535836065 766.3050343043291, 1201.9694018436962 706.2755357158492 M1099.910644468469 821.5333651857904 C1128.4042202560975 785.8257434301689, 1156.9164556202393 753.7577092779152, 1201.2187685112835 703.4539468228938 M1110.2735972211121 823.5242989237025 C1128.8214923128903 796.3933965988399, 1153.9654948708642 777.7076553938961, 1201.680882062716 716.1173666016764 M1111.5762617660112 821.4445457441337 C1144.6954337886968 778.6156782883828, 1179.7986783638207 739.3803600167089, 1201.9120323140635 716.9711494003056 M1121.7235914230228 819.0930302491098 C1134.7002670810364 799.271131203906, 1148.7928279606103 781.7144323199681, 1198.3422114104587 726.126490082413 M1120.2060490426488 819.8047872193775 C1141.4745797878134 797.1531915028997, 1161.9943989845826 774.059511400945, 1201.8563160715248 729.4725844034069 M1134.3956515505315 819.0060561225517 C1154.4217788700435 791.4347946640803, 1183.8807617766818 765.330981380129, 1203.135007859887 743.5641770175793 M1132.0152010005304 821.2775570187486 C1159.3950153878889 790.4612988657067, 1184.197046961895 759.9472064255341, 1200.2489390505752 741.1366827258975 M1145.0571421055915 822.7152503233253 C1155.5205834240462 803.3627248255314, 1167.9860600467716 789.5894037036313, 1200.3780117834353 751.586749213526 M1140.7047521855543 821.5014202057234 C1153.4941619566596 806.8428928727603, 1168.8739674296794 791.1489476822027, 1200.6006124488445 753.7434691770579 M1152.394372902656 819.0816663182272 C1162.9169281181528 809.9559586939696, 1171.2491482141118 795.4614326878359, 1203.1219817790661 766.742586904773 M1153.945951987369 820.3556645000285 C1168.2615470455753 802.4740498523013, 1184.951555496267 782.8263072276861, 1201.7834602207404 765.9684449630878 M1162.543849068678 821.3442872615544 C1173.4370518102162 807.3772427624643, 1185.5547369675662 796.3690768656303, 1198.3051807862328 777.9220404331172 M1164.3646396393729 821.7259252776405 C1174.2133320606276 807.1998131814415, 1184.6036702838967 795.5201072286249, 1200.1396301934117 777.6293743662136 M1173.6235210431107 821.0887759951039 C1178.431474578085 809.9880797264925, 1188.4166252603095 805.0032891303482, 1199.6285670568882 788.0808898278556 M1173.0256192187146 819.769810570786 C1182.9652942029666 810.4615241400867, 1187.8755936746647 802.1363204664605, 1201.8096100377566 790.206619324912 M1187.264034577907 823.2162250481722 C1186.5105518534604 816.0688953006747, 1189.1658063624866 814.5161639780654, 1201.4309851264948 804.9638043860074 M1184.4170346462922 819.6825260679414 C1190.73448717941 814.7160365675012, 1197.7361424468215 805.6716151492964, 1200.5605432394327 802.8634740141321 M1194.3901779948078 819.3837131769654 C1196.7038094091283 819.6415684546166, 1197.6320431040674 818.2442815211906, 1199.821129810949 813.8180462774434 M1194.7080835745014 820.6039505674762 C1196.7254735151917 819.5652127640309, 1197.0689312570025 817.1502871854908, 1200.0412051248823 814.6735251466356" stroke="rgba(195, 194, 183, 0.05)" stroke-width="1" fill="none"/><path d="M80.89504436962306 639.8867660749704 C353.2408165913075 634.3405584957152, 627.6330682288856 634.18713789244, 1199.5559041332453 639.8484158862382 M80.41742144171148 640.1504128551111 C461.6817588651553 643.1969020665512, 842.2114582652226 643.6194124818668, 1199.8060563677923 640.546929696761 M1200.8687177477404 639.8744011791423 C1198.257765518278 683.0191846890375, 1198.3334208892286 724.2813664609566, 1198.3021352766082 822.3719371529296 M1198.6121623800136 640.6902456372045 C1201.6645759293997 680.616372059565, 1202.1718739668095 720.0697902566753, 1198.7630085186101 821.1842018305324 M1200.641346378252 820.8310245979577 C819.4984330099076 817.5284296440631, 436.4496308933943 817.6542197036296, 79.04146624319256 820.217025147751 M1200.474552457966 820.3216984724626 C861.5556360984222 825.9620106626376, 524.112054860033 825.4128661859854, 80.26167867127806 820.2911412632093 M81.85729648452252 821.5586043866351 C81.15824154235423 749.5972942849621, 78.05891102768481 683.4165294179693, 77.89270948152989 642.9793829293922 M79.68065386870876 818.8428964405321 C76.78397726757451 779.1799257467501, 78.35952691478654 738.7766381851397, 79.76965327421203 638.9331994890235" stroke="#c3c2b7" stroke-width="2" fill="none"/></g><text x="100" y="675" fill="#c3c2b7" font-size="15" font-family="'Segoe Print','Comic Sans MS',cursive,sans-serif">💡 KEY FEATURES OF KANVAS:

• Active-Heartbeat Lifecycling: Active environments ping backend every 60s. Idle environments are automatically terminated to save up to 90% cloud cost.
• Pre-warmed Pool: Backend maintains a set of hot running EC2 VMs so new workspaces load instantly in under 5 seconds.
• Auto-scaling Integration: Spins up fresh nodes dynamically using the AWS Auto Scaling SDK as pool instances are claimed.
• Budget Protection: Limits active workspaces to a maximum of 2 concurrent projects per developer.</text><text x="380" y="73.398544921875" fill="#f97316" font-size="28.398544921874997" font-family="'Courier New',Courier,monospace">KANVAS CLOUD ORCHESTRATION ENGINE</text><text x="420" y="109" fill="#c3c2b7" font-size="14" font-family="'Segoe Print','Comic Sans MS',cursive,sans-serif">On-demand, self-scaling, heartbeat-lifecycled VS Code workspaces</text><g><path d="M177.70486362070972 357.2034691732923 C177.70486362070972 357.2034691732923, 177.70486362070972 357.2034691732923, 177.70486362070972 357.2034691732923 M177.70486362070972 357.2034691732923 C177.70486362070972 357.2034691732923, 177.70486362070972 357.2034691732923, 177.70486362070972 357.2034691732923 M165.11839514937571 383.7461256026648 C173.78816848358076 377.64756204050775, 181.04745691439388 363.46414812163954, 192.77020842634204 351.0806048618773 M164.00951276546664 385.88457192763536 C170.21749572637617 376.9007776075431, 175.8567959311806 371.26418198786655, 192.96736026467818 351.79699318568726 M149.16401121522728 410.8812805566012 C169.28676253161973 389.7681616592284, 185.24816678401456 370.4800223719055, 202.9698465546495 353.9511113274906 M151.36473206048328 411.87720190901376 C169.22497376038277 390.85040775527074, 190.9647662483245 367.54970322384884, 205.06824447874862 350.7173055159923 M155.9757818610075 421.321909682931 C168.5839676116176 400.72922669939004, 181.557283390415 384.6472358828678, 212.6370461595231 351.62194705714876 M154.04155112967297 420.07027743348254 C166.40803464003204 403.9471139899961, 180.443445433784 388.26714842675716, 213.20191624741864 351.46595986287514 M154.81112852570982 429.180646178485 C182.13225809555 402.40794820407257, 206.60671584604722 371.26207689111686, 225.34555249620934 355.5901320993904 M155.9510931942557 430.415161556271 C183.0388456122199 402.5456155886205, 206.49283022329126 375.6774513928972, 222.2935765144113 354.6575147270229 M156.4861749355903 442.1857821720249 C176.91880274862328 424.38792681066633, 191.6955709304674 405.3914842535294, 233.07652835346443 353.18454452047735 M157.9757814189641 439.9803411082893 C182.98506285583386 414.6586749279861, 203.97358577521095 390.13960189088016, 231.9790664132094 354.59922647059574 M161.25475749536722 448.37391990892104 C184.41917788853624 429.74802256152884, 201.2314514367554 406.9064173890471, 238.250567937592 356.4285087252849 M163.113974303243 446.6284528808061 C186.81806050268122 420.32277499085075, 211.680914661198 391.46711992375816, 240.40250615109312 360.6380126381175 M168.27984888235363 454.49965587427187 C186.48093813423588 433.56821899262707, 200.69863349040048 417.2805480290883, 247.25665522032915 363.82703049462924 M170.71701427538204 450.9103427485684 C187.01413808992697 432.0419891812123, 203.44175204863333 413.34807679111833, 245.01087835702612 365.93206199380273 M177.13069348131512 457.55868708956166 C197.71671755079603 432.1308561089948, 216.23553409467155 405.3543522194987, 253.85994170692254 370.2482236270492 M176.25198812737335 458.57254696645884 C200.5455683322777 428.5542044965112, 227.5698543311369 398.76453821012973, 252.7274308497316 368.8166361633387 M179.81482126850784 463.65039943355197 C198.4294593658518 442.1805117250966, 214.31981431522945 427.38964599790864, 256.92164226218523 378.29531742014285 M181.09936589894966 462.90425549038747 C206.37022703708402 431.77529314342075, 232.44330103696814 402.2936232126439, 256.9371974637492 376.16045211522203 M187.7782387826879 465.57632722250446 C206.87452234780167 445.22411009769905, 224.9826884813258 426.50036351239714, 258.8961705453544 384.82976296722643 M187.81881684859363 468.32014655751436 C207.58296899844328 441.00047833360526, 230.8172267260644 417.07117316211645, 259.74975848429267 383.37316345741726 M195.2495610671305 472.1933223706262 C211.80382006779558 448.9885313147358, 233.37203037085084 429.31339915231536, 263.5828577491767 394.60736937933865 M196.258966395557 471.19793084669504 C222.06771748940443 440.361288037479, 248.92398007805002 411.2143391192632, 265.01658438633524 392.0258716593616 M202.20837972761058 471.74788522962456 C219.68840124912234 459.5133502280422, 233.80998815898502 440.1385916207982, 270.78220259990815 400.12205378524123 M203.79138917784132 472.19705731803526 C229.20385772468023 443.81905855432456, 252.55274591287827 416.5734451195879, 269.75291083460945 398.1792510519652 M214.28998516432753 471.68223794692426 C235.0090313661717 448.2683127628041, 252.09273738929434 429.8201236791442, 266.73547203841895 408.751396713869 M216.98095628412253 470.54916157110824 C235.09947381862622 447.49957315391094, 256.044873840323 425.4007569316705, 267.8429643647121 411.5134792100613 M232.66437696310382 467.3269756503464 C236.64173839317203 460.73392029558687, 247.08602606473661 450.09763434922326, 267.1506040319272 425.46852384809233 M230.73047064494963 466.7350920296335 C240.45574647150278 457.43094660418984, 249.27348771741964 443.73764613674695, 265.8314901948378 425.52449370616876" stroke="rgba(195, 194, 183, 0.1)" stroke-width="1" fill="none"/><path d="M202.80333326867873 349.5129545541425 C210.99972996586575 347.4334715337264, 222.0773194473052 349.5247249735635, 230.24097080220093 352.6954150229394 C238.40462215709667 355.86610507231535, 246.0304678474022 361.4852598190797, 251.78524139805316 368.53709485039826 C257.5400149487041 375.5889298817168, 262.58844188147305 385.4739514483191, 264.7696121061066 395.00642521085075 C266.95078233074014 404.5388989733824, 267.03245254977435 416.29665372721524, 264.8722627458545 425.73193742558806 C262.7120729419347 435.16722112396087, 257.6451516075251 444.71621572852825, 251.80847328258758 451.6181274010878 C245.97179495765005 458.52003907364735, 237.9560336181264 463.7494372007173, 229.85219279622936 467.1434074609454 C221.7483519743323 470.5373777211735, 211.7894470779532 472.90058960799917, 203.1854283512053 471.9819489624566 C194.5814096244574 471.06330831691406, 185.72233931616952 466.9880664504856, 178.22808043574187 461.63156358769004 C170.73382155531422 456.2750607248945, 162.6940827516823 448.3139357518994, 158.21987506863934 439.84293178568345 C153.7456673855964 431.3719278194675, 151.0904340575545 420.57670079689177, 151.38283433748413 410.8055397903943 C151.67523461741376 401.0343787838968, 155.6296036223666 390.10094706966805, 159.97427674821722 381.21596574669854 C164.31894987406784 372.33098442372903, 168.03861831282472 363.1293967122455, 177.45087309258778 357.4956518525772 C186.86312787235084 351.8619069929089, 207.81032953225173 348.14753647039225, 216.44780542679553 347.4134965886889 C225.08528132133932 346.6794567069855, 229.56635997327638 352.05515947011844, 229.27572845985054 353.0914125623569 M233.83090150537114 352.9428513384734 C241.62601041843882 356.1038280353655, 246.78889499170123 363.9392353507473, 252.01780834976697 371.51347693073427 C257.2467217078327 379.08771851072123, 262.87306560353477 388.9167479449849, 265.2043816537656 398.3883008183953 C267.53569770399645 407.8598536918057, 268.08645377910517 419.3609745012533, 266.005704651152 428.3427941711967 C263.9249555231988 437.32461384114015, 259.1565567380716 445.200862573118, 252.7198868860463 452.279218838056 C246.28321703402105 459.357575102994, 236.18500575657254 467.9582056729382, 227.3856855390004 470.8129317608246 C218.58636532142827 473.667657848711, 208.483967396686 471.50186519991746, 199.9239655806136 469.4075753653741 C191.3639637645412 467.31328553083074, 183.33561042157703 463.62331433703685, 176.02567464256592 458.2471927535643 C168.7157388635548 452.8710711700918, 159.67482433364296 445.6924790205901, 156.06435090654702 437.1508458645388 C152.45387747945108 428.60921270848746, 154.0202295883955 416.8062719559112, 154.3628340799902 406.99739381725647 C154.7054385715849 397.18851567860173, 153.9789108933163 386.2657055494651, 158.11997785611524 378.2975770326104 C162.26104481891417 370.32944851575564, 171.32614394344546 363.87128410623075, 179.2092358567837 359.1886227161282 C187.09232777012193 354.5059613260256, 196.77966187852508 351.6252776588299, 205.4185293361447 350.2016086919948 C214.05739679376433 348.77793972515974, 226.69780304166812 349.7028538977288, 231.04244060250142 350.64660891511784 C235.3870781633347 351.5903639325069, 231.5866910072704 354.4145765656956, 231.48635470114436 355.86413879632914" stroke="#c3c2b7" stroke-width="2" fill="none"/></g><text x="165" y="410" fill="#c3c2b7" font-size="15" font-family="'Segoe Print','Comic Sans MS',cursive,sans-serif">Developer</text><g><path d="M359.6812855026362 360.3666390886907 C359.6812855026362 360.3666390886907, 359.6812855026362 360.3666390886907, 359.6812855026362 360.3666390886907 M359.6812855026362 360.3666390886907 C359.6812855026362 360.3666390886907, 359.6812855026362 360.3666390886907, 359.6812855026362 360.3666390886907 M359.53973628283734 377.1244489264537 C363.52691375063404 374.0274317874061, 365.2239666924383 370.45593802857064, 371.4483275748896 360.33274796168484 M360.0600552257269 375.0401411489446 C363.83978403655175 370.8799135187201, 369.47752731772465 365.15867157788233, 373.9901635442036 359.6968227167723 M358.16579321559544 390.3789468191458 C367.33749904570453 382.66053917386967, 376.716282123104 372.1334494266839, 388.68830243065736 361.8372498515835 M359.116317634769 389.94318474790884 C368.87699614977913 380.3970599709857, 378.1774000316176 369.413335577938, 387.22007860220754 358.80482674910036 M360.34929086069366 405.8739721006093 C367.707349972498 393.39898399222, 379.2733353851489 384.41256828392693, 397.64623611821224 358.5325209370389 M358.9916750377675 406.80058363176266 C375.7917769655482 387.9921028843628, 390.8371043874795 370.8982681136014, 400.96821761345853 360.3012779707595 M361.52535237108845 419.1994370953523 C372.6531050716932 407.7864981502939, 383.73342180919366 394.407889388662, 413.3531545695011 358.45142021233613 M360.0748028337725 422.1227213164203 C376.9481827733034 400.51072384247243, 394.5436770719432 380.5925356473137, 413.46564313099725 359.5867721924412 M360.89943076569836 435.6178220569916 C372.46803783445733 419.59019918466123, 390.27502230410266 404.4390507714383, 427.92935455344264 359.2790841810923 M359.6118156627963 436.349189871905 C375.50345932754476 420.67854342215855, 388.21940203540527 404.53647946904596, 426.7572979198361 360.53332335916866 M358.3738366974799 451.1268518100353 C374.8125103972767 434.2451878065231, 394.2588907242464 414.42139175835246, 440.02304950198385 359.10618433759254 M359.1702951738892 451.37396656413097 C380.55819458880177 426.5667898814907, 402.6439219723719 400.74856344548044, 439.8781507830158 360.70012103163344 M362.85150583030406 463.27327120698664 C400.41465210783053 421.7873734373012, 432.5719515608433 381.7189869086666, 454.15354659707157 357.98979842612226 M363.080557402016 463.02168931200777 C395.6754649796004 425.6914041352757, 427.34047443833674 387.1184003346439, 451.533873648577 359.7569016455271 M375.41858563602295 461.0608121899029 C405.63600325642744 426.6134866245686, 439.3981732790985 392.2605995279305, 468.05442385762444 361.9142817002983 M376.95573956512237 462.61812374899887 C399.6189899358868 436.2634095001616, 423.24576354511333 410.9522826249803, 466.3815186565321 359.50731977087275 M390.6058416117259 461.1523524564111 C425.29597273503055 419.1852944247499, 464.4204181631813 380.9970954466359, 480.5121759655894 357.54452440440605 M389.49070628139157 462.0548218891376 C408.0892025875804 443.0587851558491, 426.779834720529 421.5151855417956, 479.8056639849217 359.90470559336194 M402.7741955263315 464.8424035101282 C429.7347100527181 426.73089344518917, 463.4369235705997 394.61913249163985, 493.1093913529135 359.3868230327307 M403.7850878158359 462.4241101774471 C428.93891138439335 436.0800693904236, 453.9331609830763 406.5765835901008, 491.39909093678665 361.47543617368626 M416.11248581178666 460.9310118453394 C438.1825956582319 436.5268066689644, 461.77215322657577 408.58176228935014, 504.7679292885152 358.5497515888892 M415.878540471496 462.5554906746189 C441.8295301150442 434.6527490838861, 467.3315588492944 404.64574284514373, 505.2434610271392 359.34230670686884 M429.58064465003855 460.88463020633003 C463.462226660219 420.8952838129288, 501.54551152711196 381.91877310281, 517.1875657043415 357.4974190671668 M429.43142367641275 462.6390123163446 C460.812867153584 426.28050785324007, 492.2769009589554 391.15349135639275, 518.28546180902 359.6402880036012 M443.45287506000545 464.396988846717 C464.2953104638589 433.4572003199824, 487.1151279116224 407.8925026040597, 534.1891702823394 362.0103407118488 M442.8054770705983 461.84864217264726 C462.143970625789 440.2999628429474, 481.31664734387795 418.7969715930726, 532.6174839604699 361.53989774957483 M457.5562967236345 462.94235301078567 C486.1374433881838 428.98741815933454, 512.2965923801239 393.4957824132228, 542.2897064544559 363.41043801722054 M455.4399663320933 463.95802292921854 C474.87838244907635 443.3095004413449, 494.4509103748038 420.7472753368213, 542.9901212845296 361.93470050548143 M468.8701821018632 462.1816846125985 C485.8755989638262 439.1567319503437, 505.14246385191365 419.71788663930346, 541.4363459677803 377.7066824309088 M469.9884192929293 462.20913456652704 C498.94806997084515 431.9542463426647, 525.692351124272 399.52670650341355, 542.0837852743822 377.4494514103539 M481.98883837663845 463.2970613964407 C500.41252673581903 440.4492989374379, 518.7827702761823 422.374447724611, 543.9844203340699 394.88461634274347 M482.11900788114684 463.50921352026444 C505.23856340891547 435.4550321104763, 531.3955114965147 407.6657151854339, 543.2241565628788 392.19211717042845 M497.1208435668788 461.39783861592923 C511.00266283299476 446.6164510392634, 522.1879114281129 428.85413162981956, 544.9331152062812 410.5950895772325 M497.05128423675814 463.69941436045383 C513.7178932153936 441.06488737898627, 531.3231385905691 420.30100811147975, 541.9553792990693 408.3051125516193 M508.3276923545313 463.4739065153494 C519.1468556685693 451.9696301404198, 523.9083404274126 441.68075320255423, 542.9019461033324 423.11151988799287 M509.53232653780395 462.7705672727868 C522.8963232588901 448.2797112598927, 533.3709558276751 433.665991381563, 543.9540368729661 422.1850608739497 M524.4669731715428 463.55656158898654 C526.8080345155523 454.78998779256364, 532.2716185094114 448.3560776419852, 541.8572861781804 438.3925695995327 M522.1174160873251 462.4865493179548 C526.4361317438791 457.15895005655256, 532.5327692817939 451.4418088766666, 543.6931796836195 438.8079706533339 M535.1827050316311 463.24741903960523 C536.2469407022805 461.9199158114545, 537.519218964405 459.0938000044762, 542.4119642685324 455.0588677295427 M535.7318064997323 462.8443857499194 C538.8571570230429 459.55679667214275, 542.0051222448423 456.4994110258446, 543.5324396213115 453.68462172613846" stroke="rgba(97, 218, 251, 0.05)" stroke-width="1.25" fill="none"/><path d="M358.36238556280733 361.91350227221847 C404.3659036573023 359.87003765040635, 446.8062419727445 357.9311755412221, 538.1979267396033 357.72164738997816 M360.9644508283585 359.8059356946498 C407.83062871322034 360.3630480911583, 457.2510466340929 359.5064260985703, 540.233417872712 359.31413368172946 M542.1592447556555 361.70360024794934 C540.2398246729374 393.58971284888685, 540.4794073784352 429.84441294372084, 539.0536520518363 460.4381941877306 M541.0330094140023 359.59742330498995 C540.2234720248729 384.59618417173624, 540.7987370152026 406.44434880129995, 539.5399201076477 461.0835162658244 M539.2628643549979 460.12528010234234 C497.19080599732695 459.18054494464394, 455.92710106372834 460.31874734961985, 361.7054199971259 462.32868126258256 M538.9564336460083 459.6085264701396 C476.48204419612887 458.4666838881224, 412.36167505569756 457.81385141579807, 360.0837953131646 460.8835617680103 M361.09748752489685 459.220314296335 C359.97700400501486 431.70728950686754, 359.42401926666497 401.29678775817155, 357.7751299895346 358.4997248254716 M358.9138128798455 459.06152302213013 C360.4355800310522 439.13945282921196, 358.13961165346205 419.14552175067365, 360.5890547197312 359.0603761453182" stroke="#61dafb" stroke-width="2.5" fill="none"/></g><text x="380" y="409" fill="#61dafb" font-size="14" font-family="'Segoe Print','Comic Sans MS',cursive,sans-serif">React Frontend
(Vite Dashboard)</text><g><path d="M670.0891580655098 359.89743537818856 C670.0891580655098 359.89743537818856, 670.0891580655098 359.89743537818856, 670.0891580655098 359.89743537818856 M670.0891580655098 359.89743537818856 C670.0891580655098 359.89743537818856, 670.0891580655098 359.89743537818856, 670.0891580655098 359.89743537818856 M670.1251119241047 375.8864403391273 C673.9014833192279 368.4043446378779, 679.0876404704937 367.4130412509366, 685.0427526340177 361.9390909494549 M670.6035642374235 376.05805655326856 C672.775628622865 371.32373668851824, 677.426174207063 366.90422174957706, 684.0801900495131 359.6805743334532 M669.5101461769451 388.3550579496161 C680.2383300779828 381.1360744433928, 688.6638092908747 366.61278710103676, 695.2301436976875 362.3514624671075 M669.626964295413 389.6824545149193 C679.1407821419755 381.0796011020132, 688.0135169760025 370.4696323566749, 697.3420801123018 360.43413231493867 M667.4519853229143 407.3327697533648 C683.0068758912439 386.86912987864514, 696.8983346540678 373.61301022750047, 707.6398024390297 359.666804916012 M670.1863535879619 405.22329186941494 C682.086528109463 391.7215343045109, 694.9686471088384 375.3879374612948, 710.0400535418497 359.78778914210466 M669.9885530840555 421.07536655086534 C679.7675097132213 405.71748949711497, 691.7468205878067 395.0656365669241, 725.5891317431158 359.21988158732853 M669.7596582785199 421.69420853834106 C682.7360461216063 405.7777548029596, 696.3661689167344 392.2215151241753, 723.1037812896346 360.06814160220523 M670.8749433164504 434.07857121350077 C694.7352649177765 407.6157560717225, 718.745653243048 381.78782108999974, 736.3619407450182 360.74154952221755 M670.5236152895746 435.9233858891746 C683.8650448588359 418.08567361799, 698.6372209391283 400.71822668532656, 736.5734811821354 360.0099896074945 M670.2568922421426 451.21536204176294 C701.651415714114 417.5207145647266, 731.2375202868448 380.2159102189958, 748.2016219167803 358.26963077117074 M671.289744534576 450.4283700935011 C693.1450663011859 425.218828229619, 715.2111644156018 399.39499870397367, 749.0555950078015 360.40470745455787 M676.7518374781279 459.9562631850302 C706.2766741197688 420.3076495715335, 742.5585670865718 380.0453778888192, 761.3997968934738 358.85216987534875 M675.2479079469261 458.9738625467926 C707.082255442304 424.9978669446302, 737.3752980624142 390.03144430166526, 762.0739343431107 360.9410013056498 M686.825445804431 460.18202128334866 C713.1123643405188 429.86727897930825, 738.492993442813 400.74989481211605, 776.489493560171 358.45830512591135 M688.205337248056 459.321896510189 C710.0295433969968 437.5972481401818, 730.1103078046434 412.21141820777433, 774.7253576395422 361.0532804480238 M701.0317867582374 462.5245395905521 C724.4529714764067 432.03557677325654, 749.9703388363547 402.4840673160031, 790.4383231389154 358.68913982335107 M702.0893075415574 459.7102712336179 C731.8211328134904 426.0764628304855, 758.5741100906563 394.7934394040182, 789.135447310545 359.5700285532661 M715.2322215615912 459.19117140713234 C748.2639062033102 420.2584935816257, 784.6641588946349 380.80571679607124, 803.7371260147789 359.08099975882783 M714.6285262408808 461.4143453886648 C740.352771006048 433.51360999221066, 763.1997398064675 404.01184872125265, 801.6096555575976 359.9545611586304 M729.411340599564 458.9244925242497 C750.1899130174231 439.7651060311027, 768.8382574182307 414.74369642822796, 816.5931488228337 359.4163044735019 M729.4315705475036 461.0443095125837 C757.9580699453803 426.56695440913956, 788.339049310108 391.30907858178534, 815.2889814571784 360.3533969263707 M743.8701405072281 460.5131724830644 C767.6499114911448 429.7038168540555, 794.570070127933 395.99164278135294, 827.523221535123 359.63443851786536 M742.2425645379046 459.7935572676288 C766.1824367416564 433.9050712226687, 790.5728884515704 403.4324380813117, 830.0056480477368 359.2446289030729 M753.0192012566268 462.3028458340684 C774.2131757765368 436.2638724438547, 794.5998566380081 413.6073945471515, 842.8424032867189 359.33500893307837 M754.7968562505334 459.48705670038555 C777.0963375620646 433.44357116105016, 800.9198611889454 408.6141663889081, 841.8342481557513 359.47868200099083 M769.2673319828322 461.69936961842217 C797.4761826327945 424.03617023523293, 829.9669145594861 391.09240924368055, 856.713218491684 361.7340069300786 M769.5721635118683 459.4221077231083 C798.4172310471276 425.1563663878197, 828.5585166812461 390.6257385139414, 855.2034805116907 358.7719746771559 M783.2147480709161 459.87969462728563 C812.2480123781118 424.1506260064314, 843.5347514980165 384.50719311944965, 868.0585387850901 360.54822705002607 M782.0442510233875 459.61671337305074 C805.9376525893173 435.0421824145203, 827.6102258893783 408.6277296453288, 868.2715316920331 360.328838093822 M793.4462482429223 459.30273666115113 C818.0398019952177 430.55710437177277, 841.8996856555913 405.07970085340247, 868.0017566171521 371.9362012874229 M795.7426074485408 460.4579510717989 C816.37957791787 437.20257953971816, 837.5159016203937 413.1873879631818, 870.8287497133994 374.51995024158487 M808.8198603839224 460.8126340111786 C832.5409380230661 431.4209491264527, 857.0038370942405 405.76379210017205, 868.4144415577988 390.7112679800876 M808.6015912388062 460.7427301066065 C822.8973480794458 442.04789066400093, 840.0413258303848 423.8835184217239, 870.1078003371249 389.23290482935687 M820.660018628989 461.1496187185285 C840.0056789296113 439.11858121560545, 856.2884847626638 420.14335925955976, 872.2989791370554 403.50495501806665 M820.8161077206624 459.7261628897277 C835.1004838939604 445.83588423637553, 848.6752431373166 428.46936336878355, 869.2288059096409 403.17309449327814 M834.9507404501651 462.4608878336927 C845.5658697749109 448.6253225215592, 856.061911776971 434.7676472489425, 870.6378069610031 419.123141522743 M834.297286182559 460.3699362177482 C842.2781914669358 449.3968156623477, 852.6524596193168 441.02767187792256, 870.9110814784349 419.9573724758255 M848.2242724825227 462.20386089783153 C857.023008603771 452.49403013795126, 862.6284548246615 442.85938026746635, 869.5790050016853 434.3739620446088 M847.4236257009737 458.983068752922 C854.1107802543421 453.37501294166674, 860.9775965888768 445.0952477020493, 869.5212250819567 434.0794568235846 M861.270104792717 461.21354541349336 C863.2071640354471 457.97111879826036, 865.1398603826065 457.42549540477916, 869.8467962459123 449.70540885253666 M862.0126677932806 459.792145615752 C864.0262584165545 456.60879523598, 867.4435195378825 453.0163207176195, 870.561355645044 450.6021643381272" stroke="rgba(51, 153, 51, 0.05)" stroke-width="1.25" fill="none"/><path d="M670.3778251383312 359.48415798421314 C718.5499752091071 357.0294269648321, 769.858331291359 357.67482615037216, 870.983941181788 358.7969620916634 M669.4669035300129 360.39686365523187 C732.736031006706 362.82368930827727, 795.1910528599242 362.98223208772515, 868.9564977730699 361.00877345683244 M871.0473349414766 362.3049600161612 C869.6274373090267 400.0427936349064, 871.5267061507702 437.7074377089739, 872.3909666620195 458.3517423428595 M869.3474359173327 360.07916557006536 C871.7109554808587 396.2110530003905, 869.9426959913225 433.8682009745389, 870.5164245385677 459.52890119962393 M871.6105828697525 459.65173142541903 C818.5184640127675 458.6644260553077, 764.6599246552468 458.5147992282165, 671.1815901148238 461.22416706060056 M869.1830125029734 459.33723182787924 C808.7047105555079 459.62576570425455, 746.806072939792 458.451887336478, 669.9435488038902 460.885563779994 M669.3680376373231 458.54479122534394 C668.9927283987404 430.67731194905934, 669.081903551519 407.00505133122203, 669.1954507909716 360.4051309861243 M669.436909474805 459.05725831203165 C669.6819227071851 427.21674661412834, 671.0004849644749 393.8778382334858, 669.2468320865185 359.0316483300179" stroke="#339933" stroke-width="2.5" fill="none"/></g><text x="690" y="409" fill="#339933" font-size="14" font-family="'Segoe Print','Comic Sans MS',cursive,sans-serif">Express Backend
(Node + Prisma)</text><g><path d="M669.927461056984 520.0834465083387 C669.927461056984 520.0834465083387, 669.927461056984 520.0834465083387, 669.927461056984 520.0834465083387 M669.927461056984 520.0834465083387 C669.927461056984 520.0834465083387, 669.927461056984 520.0834465083387, 669.927461056984 520.0834465083387 M671.2557349494891 530.9726902135812 C671.6514414138751 528.0785872738065, 676.7073184464662 524.2310996434379, 680.4460709033199 519.597949880342 M669.2923206332373 531.0002304193729 C671.3641749749853 528.7318970540997, 674.1329917574166 526.6431494392843, 680.779109764997 520.516841893251 M670.6345450340165 545.6944590255293 C678.0070637106544 536.4855793773746, 678.3691342897478 535.6644017175898, 691.7924135814541 523.0039769974422 M669.7384348062193 543.5576530278336 C677.5258552306705 535.1568195396374, 684.3792476728295 529.6212981165614, 689.9075344035522 519.001180495124 M670.1200056917453 553.3460468459994 C679.8338180039847 547.85659384937, 690.3705617756182 532.0496956063796, 699.4346993411536 520.6784943483736 M669.6529461330222 555.914087722183 C678.0826168806442 546.5734847286477, 686.6291098526714 538.6885406857529, 701.2828502291459 518.7700086214546 M667.2353026680788 566.2066680153077 C687.983677523287 549.5544618625344, 702.1083255621265 529.0158252087509, 711.6698567668077 520.8611989933115 M668.4762525758846 570.0996677076621 C685.1097150700997 551.5851837814301, 699.3186648105827 533.6932184124178, 711.3158699312348 518.562659055372 M671.5939151049824 581.7677883827747 C690.3935726458449 560.2434716877789, 707.7620219799292 538.9809047810345, 721.8373328799007 521.9992650045212 M669.3251139164204 582.4656153033176 C682.1245950460137 567.710972442687, 693.2587119975942 552.409081670096, 723.831254764702 518.6025662451182 M674.730029610912 590.6108907799976 C696.1390449188079 566.020702955558, 718.2939891998332 542.0784726594661, 736.1349731394171 522.2908430167686 M673.3165872464838 591.3345174667234 C689.954968465968 569.1669288713947, 709.4800110425531 549.5722027571732, 732.4510292656801 519.6361138576854 M680.566526376776 589.0448866999598 C705.4429682487971 562.475606901375, 731.9856312431644 532.5722913274183, 744.4627714418411 520.3413102273191 M682.5203880841318 589.9033624730894 C702.7014422368982 565.8698599613288, 723.6635447977877 544.1432824220623, 743.422706251552 520.3545097788158 M695.8572534511728 592.6301058026002 C707.7991210217209 569.3799855285645, 724.5456001641353 557.6092413821409, 754.2666201211574 518.8195203959385 M694.3855396488613 588.5331544208311 C707.9312755965814 572.7154015731896, 721.6858872740086 558.2942948432452, 754.9474118209506 519.3156611130016 M707.0246656680865 591.6838393476845 C725.207619923666 567.3619690372202, 751.5020502915568 540.9988982315691, 767.3820599488499 519.1140538448925 M705.0623867893046 589.5200816644409 C719.805231124675 573.0560723286302, 736.4158071270532 556.6350006154413, 765.0080103537584 518.3660491834852 M715.1308662990019 590.9931051574782 C730.8430217410631 568.3185034895172, 746.1915526779071 554.3915973024868, 777.8780301339035 518.9894674589465 M715.3580126353451 590.5739067771607 C732.4987673660575 568.8155499045147, 748.3708770849523 549.8981695188893, 777.6972295111087 518.5626045322584 M727.721357052903 589.470897616747 C751.9636532136864 564.5107000988869, 772.9287254620564 532.4812382020717, 784.9006183228022 519.2425446853662 M725.0643635981152 589.7398415509828 C749.2399316994737 561.9090319186254, 775.4781160623367 534.7919086789252, 787.045785235384 520.5945819200637 M735.6687880762744 592.8124376727567 C751.7569674658913 571.9538507574357, 767.1592809953726 554.2359198644837, 796.5168105995305 521.3585455339173 M737.7863743699978 588.8204219966494 C749.361960004818 574.1108021379656, 761.7344994077528 558.5059861049448, 798.350506750217 520.7054353263932 M747.0167079531003 587.1514228352726 C768.4515717988386 561.6716647620348, 795.0350520828941 538.2220339571819, 806.5582414855727 522.1674565768653 M746.2700929246258 589.2973833436527 C764.2590319870174 569.5382560796497, 783.6962552302025 549.4774307965911, 809.0024615604908 520.1146929494889 M757.8233137048653 587.7162771765604 C775.8933003640605 569.763066280032, 801.8721750025983 544.805677040874, 815.8088849109229 518.2549505291987 M758.2308055168821 589.7535350402347 C774.5214001633337 570.7420241579678, 789.8201972144625 550.5584177050983, 817.1590214233477 521.694541786566 M768.0052007905534 588.486401331386 C784.9823852301299 568.9445775840145, 804.5637668389022 546.7841594556618, 829.4730403300462 521.5997979277377 M769.6811616828992 590.794635753388 C790.6266822968405 566.4213414135442, 812.3818959818112 540.215617923766, 829.1962234641512 521.3728643129211 M776.1811131066494 586.8484224970146 C795.0098826335101 565.2373960933894, 814.9796561974796 543.3683108610686, 839.0827285479364 519.7583746124703 M778.7592992400602 589.4712683688542 C798.3525591481309 566.9302493302106, 821.3807852341894 541.7628171969229, 838.1005410025438 520.5833709632691 M789.5156929871375 587.2524444332122 C809.5203199418162 569.9046633862793, 825.2065944315264 551.2868848769631, 849.9656778360784 521.5020734056625 M789.0569692869979 590.2007149911261 C807.3078800686035 568.4340181153439, 828.2400734429181 545.4361757664502, 848.9212446684085 520.6686368108521 M799.9071721745115 590.6230070424671 C817.8083651521613 567.8209805699712, 835.4475226961546 546.9337287641814, 860.4330149034561 519.2282636920798 M798.7916021746043 590.9435415236684 C825.0205895978979 562.2254097583252, 848.0892671880258 534.0655017620418, 860.4424683728778 519.5566861476626 M808.4553579357369 588.996498049099 C831.5233783039636 563.938061802222, 851.6525723954918 536.5096421423592, 867.310896838573 521.1259605794332 M809.7586686219936 591.1066343480275 C823.4360353867654 574.4270971547035, 837.8434459754465 555.6945807847321, 868.6992162503536 522.6922866448879 M822.3690288883074 588.705660480597 C833.9233333040532 574.6005921171728, 850.422286160618 551.3957224702465, 870.5357888775274 530.869751540162 M822.2234505425579 590.4933328051687 C839.0627841536992 569.6064878869926, 859.0231696508064 547.5188366482809, 871.0570154265828 532.9965009946939 M831.4339211162077 593.0170043467263 C840.2853385761732 576.4783645909774, 851.7086077354257 560.8869876969403, 867.6163394476707 545.1065015234128 M831.8734021599302 591.2064658745842 C841.9103933233223 578.8821505137516, 850.206494715761 566.6625801700898, 870.6581660623151 545.1190170222037 M844.2004191409217 591.5417662197523 C847.2366311909115 580.7490657263838, 855.820808384854 569.7112667220086, 873.2347690079873 557.299986163951 M842.9902159789929 589.8249367545158 C848.5799083325566 582.3243275612384, 855.3964282629066 574.9985266740495, 871.5075051936833 556.5484058944094 M849.8273059214341 587.8921592344411 C860.6597609894801 585.2785303367122, 865.4665784948548 574.6997949475668, 868.6193874259712 572.5759172392652 M853.7779477858792 591.3255978619561 C856.7687548463725 585.9502119686546, 859.8462080654352 580.8265862783313, 870.8292991090799 570.2227725772761 M862.1527907296417 589.2679471130446 C865.1448501523157 588.2895007125423, 867.6856488342154 584.8599907810387, 868.9766194942733 583.5052648422395 M863.7856051265129 590.851698485339 C864.5203732486054 587.9948605996999, 866.2811630462439 587.2047132906657, 870.4801316800388 582.041983925327" stroke="rgba(71, 162, 72, 0.05)" stroke-width="1" fill="none"/><path d="M667.3869818652005 521.9576110931109 C717.5761402485938 518.1140796374032, 768.814587108769 516.508890461067, 869.0872828050356 519.5554778689732 M670.2822049877809 521.2104751745087 C739.8930851595194 520.2291774033224, 812.6950302448598 521.589206253389, 869.8285789119545 520.5935889594801 M869.919281409122 517.6328997304663 C871.3290355036967 535.2624779809266, 869.7777292261832 547.248348002322, 871.1603515902534 591.3316131224856 M870.077328025829 520.701134793926 C870.721925350763 540.7378372005187, 868.58219538901 562.5259362631477, 868.8661612118594 590.4678576667793 M869.4558668181003 588.9883925200157 C810.0521842910584 587.7397714333107, 753.2229231820826 586.0852636515631, 671.0354332164428 590.4407269132372 M869.1315094897675 588.7834745679013 C818.2307497717799 588.2862489591782, 765.6308245406973 588.7858903540465, 669.7646050057629 591.2199311767309 M667.0482346871868 587.3365851929411 C673.1485507317818 571.7035261504352, 668.0627195366658 558.1803599530831, 670.7697144905105 522.8881714334711 M669.9500075872056 588.8162420024164 C668.5875418030471 570.6435364889912, 668.7539079182595 551.8146653757431, 670.380761816632 518.7536506433971" stroke="#47a248" stroke-width="2" fill="none"/></g><text x="715" y="552" fill="#47a248" font-size="12" font-family="'Courier New',Courier,monospace">MongoDB
(Workspace State)</text><g><path d="M979.840971599393 360.1829412479093 C979.840971599393 360.1829412479093, 979.840971599393 360.1829412479093, 979.840971599393 360.1829412479093 M979.840971599393 360.1829412479093 C979.840971599393 360.1829412479093, 979.840971599393 360.1829412479093, 979.840971599393 360.1829412479093 M982.2001087017469 377.1702077145314 C982.770042334786 369.8392291670843, 986.892650442233 363.33752189294216, 991.5676711604099 361.57569021572016 M980.1948277559243 374.6536719119733 C985.6046598277441 370.40045644920326, 987.9656410436229 363.7860717677758, 993.1963114682685 360.87199085753997 M981.1349205077806 390.33119350128175 C986.4251130986825 380.60815347642426, 993.1059667437682 373.02790013760045, 1008.8180717268556 357.5396722482122 M979.5843260248372 390.3849073396653 C988.4015505990474 379.7410386744009, 997.0912716328887 369.1051605956037, 1006.0903286275982 360.2525279966719 M982.1616197424632 404.41014960893244 C990.9886103124427 396.17116135563253, 998.1556165540306 383.383302057479, 1017.8751215467817 361.64986700423765 M981.0799561834586 405.82849289477616 C989.1717726417222 397.046166179668, 995.1948592433395 387.1856019336126, 1018.4319118647492 360.8753056150745 M980.6510229181259 421.2511387526163 C1000.1211301828035 401.7075447847023, 1019.726585601205 374.6829083177846, 1034.1971544984813 361.9807176280383 M980.4654375761509 422.06109627290755 C993.2365840047378 405.30943481505005, 1007.1641200624896 389.8507969694057, 1033.7161260150458 359.8547937124584 M981.7302139130625 434.75985407657566 C998.8691798083061 415.0252659404291, 1018.3815910736132 393.53402486270664, 1044.1313586232768 357.8262647545246 M980.851460038239 436.4315624737704 C996.0877606434777 416.16806306323684, 1012.5724034686341 398.7498501714718, 1047.1100932018417 360.3231066542027 M978.159071739604 452.6162957959433 C1005.8052610668872 421.51437223143415, 1033.795011628866 390.25632008112734, 1059.6069532124898 361.11101776860676 M979.6647116640855 452.1610904429664 C1002.574460988024 423.32425328858255, 1027.358371251527 394.6784547457431, 1060.0586699234893 359.5283744306864 M984.7522150079684 459.07441791317893 C1019.9706710430776 421.31016351161367, 1056.426875459965 378.9056665680097, 1074.4283658944144 361.8008260645265 M984.5823232709395 461.4303797884239 C1015.7890263652401 427.7978297378233, 1042.3654166634249 396.0026700308088, 1072.0901241403146 359.7331139166201 M999.4388803754397 459.3766102423019 C1035.2853859000563 420.07613820263896, 1068.0947212227686 379.1220595492408, 1084.2638784603716 360.10613652719445 M998.1042468481161 460.8816128046311 C1017.855198592306 439.45731902524074, 1037.1092602337 417.03643016307524, 1087.1172811006695 360.70498635238295 M1012.3394503144441 460.66637505067285 C1033.6565786014469 433.0821902517162, 1056.142667406109 408.1066098258315, 1100.5388039516845 360.6928647915206 M1012.9422833250729 460.0186311144173 C1045.969359534431 423.5716558082046, 1077.0330957928536 387.1219264524271, 1098.0432004279087 361.01516860335386 M1025.1479878663038 458.44087797320225 C1054.1398871949127 429.35254176321234, 1079.806645732786 393.77268394001663, 1113.928663746646 359.69326650174713 M1026.1151173251633 460.3469865831617 C1052.1919267684395 430.52556107590874, 1076.6194680728129 402.19044856096167, 1113.3668532073557 360.5367244192437 M1036.208764409312 460.6636246541318 C1072.3397068005231 425.149082752033, 1100.0615577339713 388.9686364022178, 1126.347833386578 360.1091947927841 M1039.1373449337118 461.3741179605749 C1059.5825464244435 434.2073555720586, 1081.6763128960374 408.84538561771024, 1126.2842678123643 358.93536191543126 M1053.304905484791 459.967718228372 C1084.08226129343 420.2303857900863, 1117.7956637134362 384.19227318890785, 1139.0987786917933 358.06826196931917 M1051.120619524072 459.100108362036 C1081.8291359262741 424.4807420521254, 1111.3560016790987 388.3336564433822, 1139.550266020278 359.813095252073 M1066.7515678840628 459.066730580833 C1091.731045732032 423.7993631777467, 1120.9541522355805 390.4744047547699, 1153.884937703614 360.00825866626263 M1063.7793288445969 460.516056527924 C1092.394540354256 426.89265632751585, 1119.1816820567637 394.4188940749684, 1151.6038449544503 361.3801637945479 M1077.6891167354206 460.16557360575666 C1109.953375356209 427.1988136637364, 1140.7072731524036 394.55080218130274, 1165.7599568003334 359.3333155278562 M1078.0362721056113 460.90244808294943 C1096.5739812872991 437.1528187206825, 1115.3504419959047 416.4359349759462, 1164.6299132002064 360.5986937925665 M1094.0717713301867 458.7637566880535 C1110.4041345093613 436.1146215358982, 1128.9927983455307 413.4458136407216, 1180.7163365232732 361.4171606890105 M1090.7238058054686 460.3199130174916 C1113.7682192973596 433.9962234302293, 1137.2826275848852 408.94225940459046, 1180.0604366308983 358.8734558615081 M1106.160782209683 461.8662579626336 C1135.4706568686775 426.44322250355356, 1160.4498795466397 396.7815108987772, 1193.5786086637559 361.01399103463547 M1105.5895208175218 460.10759694692933 C1125.3299122361345 437.24857518651226, 1145.1676013584647 413.48529132366906, 1191.5801154948804 359.75023624175145 M1117.217608252203 460.59439557373906 C1151.2549380616074 423.0496652366076, 1185.0531804009163 386.2903599153228, 1202.104100147141 365.7523105205327 M1119.1019194770959 460.58153237097343 C1150.6829053708948 422.86312901604686, 1181.4249832187886 387.31103813808136, 1201.139648299543 365.8971751195669 M1132.2925624990687 459.9890851562799 C1146.1617247887389 442.0802937254854, 1162.589639139671 427.2729810249317, 1198.620051090808 379.1005110129489 M1130.3515614075438 459.5253961550028 C1152.6410270896838 436.13029653445545, 1172.5765154794851 412.3517990463373, 1201.7053498692972 379.9578474666699 M1146.3740482705928 460.46700151494395 C1155.9361545424176 444.6631101061199, 1165.8605300053725 432.99389312208064, 1200.5258544129551 395.39297110389856 M1144.3127996362095 458.7341712091739 C1157.2575702828892 444.36381119925665, 1171.1264710143503 428.9513653478909, 1200.0738909543725 394.66486185554356 M1159.801441108097 460.6049977846413 C1170.7353660989336 447.4239940916746, 1181.6200963822487 430.60710468195396, 1202.392343991876 410.9916339376236 M1157.9691625364467 459.4860656488656 C1171.0495393296703 447.2546179464698, 1182.063789102425 431.2023184844812, 1200.8840863900932 409.88893828589863 M1171.214324889875 462.5962671096138 C1183.9593193549263 446.9025208023891, 1195.0778878757333 432.4103558749381, 1201.4231488399018 425.8327497292567 M1170.7750899435791 459.4861744737885 C1182.7441395070778 448.7385437632688, 1192.5391129264508 437.8290276470966, 1200.3907492708227 426.87315070333665 M1185.5411376572483 458.85360012477196 C1191.010660990418 456.7012318352901, 1194.0865344102258 448.6329477877311, 1202.6281653353267 441.0641991230402 M1184.957078980961 460.95723704932186 C1188.1428903332112 455.31604243555324, 1193.0095394946834 450.91851719112503, 1201.9506631818854 442.15775035756866 M1197.2081846701308 460.93829608435664 C1198.5135004135439 459.01836065555665, 1198.9766124160953 458.9284058806688, 1200.8703401010807 456.7426135632915 M1197.6649377814822 460.6677341220613 C1198.4004341656876 459.66400246153563, 1198.7200868065934 459.1838540431635, 1200.6482213453714 456.8481567158138" stroke="rgba(255, 153, 0, 0.05)" stroke-width="1.25" fill="none"/><path d="M979.7700656739577 359.3530308090214 C1032.140368291225 360.9867695302309, 1087.2671704577128 362.051969018635, 1201.8061127750577 360.4735856078764 M980.9481529071701 359.40292600522434 C1067.4763154923226 357.441848779677, 1153.4652178847375 357.30469047623535, 1200.7407354398015 359.94315545425 M1198.8235153131186 358.70767955258486 C1200.3226625812053 383.34895520694556, 1200.7413036954401 408.63348723948, 1199.465595882386 458.9788386531174 M1200.7762889239937 361.0426501002163 C1199.4059223928302 384.2407906576991, 1200.150613943562 408.7159053210169, 1200.0694334004074 458.81967106722294 M1201.7705725926623 458.7767500036178 C1129.4746174496029 457.6667771802323, 1053.5634683218768 459.4215672006341, 980.4575047068025 459.5002204640908 M1199.4486122980854 460.8438072845016 C1153.3362249454563 459.81964857727536, 1105.9735999412517 459.63992866288856, 979.6916790445825 461.0268282428794 M980.7091378621757 461.9937450833619 C978.9441771861912 438.21735683344303, 980.3176721212268 413.62157847732306, 982.0360923938454 359.41594330742953 M980.483102664724 459.0487288918346 C980.0946080594509 420.9713341839612, 979.042231586501 380.9424711991102, 978.9623868200928 358.9741926994175" stroke="#ff9900" stroke-width="2.5" fill="none"/></g><text x="1000" y="409" fill="#ff9900" font-size="14" font-family="'Segoe Print','Comic Sans MS',cursive,sans-serif">AWS Auto Scaling
(Pre-warmed VM Pool)</text><g><path d="M979.9764064790835 510.02714124107763 C979.9764064790835 510.02714124107763, 979.9764064790835 510.02714124107763, 979.9764064790835 510.02714124107763 M979.9764064790835 510.02714124107763 C979.9764064790835 510.02714124107763, 979.9764064790835 510.02714124107763, 979.9764064790835 510.02714124107763 M978.171804586357 522.6693560322262 C980.3144491012312 519.7366885266557, 984.4675592785079 514.9938382589872, 992.0681213179282 508.8927380096253 M980.9246570109636 522.4087442213184 C983.8567989211758 518.577892871141, 986.759563960615 516.6672273324924, 990.1923630719684 508.9664472803559 M983.0246914523062 531.7514408606994 C987.8532155781837 524.6754224044024, 991.1732792414846 520.6215527866394, 999.8164283364214 507.5194385946896 M980.0443154727449 534.0225314543541 C986.926930514743 526.4272513068842, 993.3731623013929 518.0645613544716, 1000.8819497661799 509.30437446815705 M978.8900944056982 546.977680616548 C988.3931077295699 540.8099276308976, 992.8580011138998 528.9037225177137, 1010.088026730589 512.7441343542437 M979.6529950669096 547.9554979549737 C990.7563572960998 533.0892295782642, 1002.6291932206861 520.0571439411692, 1012.6318516375156 509.71621660825485 M978.422568465412 556.0131956630845 C993.0460133719482 542.0166725415861, 1010.5005721458407 527.0497374918826, 1020.28906371576 507.8990564397867 M979.7176552026685 560.1450897714582 C995.6902932763911 540.8985571791991, 1010.0107102978503 523.9280341896509, 1022.4404793427441 510.8827865887764 M982.2021080692545 573.1495913324848 C995.0132052008431 557.1234761754537, 1009.1584185537796 538.5217721077051, 1034.5882099462312 508.8853584157715 M979.2740245707579 570.6310354049288 C993.740915527775 556.4335479668811, 1006.4945055637104 541.6676686249615, 1034.041124507842 509.5241619243699 M979.8426963715222 584.9677086892019 C1002.2128080906127 560.6442435455884, 1019.0859328398124 535.1387873466183, 1042.2508157637997 509.42938915915136 M979.0202385471541 583.1060686200339 C1000.3294515932706 559.3719519805142, 1020.2270067106748 536.2782392562239, 1044.0640514150357 511.1275099734338 M983.929232329974 589.604745789298 C1013.552293977581 560.737637439847, 1038.2112290788987 529.6719638839102, 1052.6076611977621 507.6139428593794 M981.5506412800457 591.6361747042808 C1005.3286275908083 565.9582549546377, 1026.2075394316976 542.947056796662, 1053.802122002802 508.4314629381167 M992.9862807058311 593.2855076804441 C1020.7048473444637 566.2352382855078, 1045.2803693877624 535.3445285974906, 1067.0237059649155 511.4095090184087 M994.1214106898336 592.144965468036 C1008.397067876719 575.7949842362219, 1024.2446431793674 558.483608681589, 1064.4764208658673 509.4104928643169 M1001.701405368004 591.9666863272662 C1025.1690247300774 565.5634167733126, 1052.916544551838 538.8898102019157, 1077.8668394695567 511.20552245069234 M1005.170766773358 592.5110841698709 C1022.5672437370552 568.0233214417252, 1042.9426064411332 546.5605715926517, 1077.0018802552083 509.7592866416828 M1014.8878082207898 591.7174040442179 C1039.2182209960902 558.1255089605872, 1067.002485124531 526.2019466190618, 1088.4766308034827 509.34161328318356 M1014.0784855315956 590.9018739494342 C1036.8438232571693 566.9650468884881, 1057.2495858525049 543.5634072518505, 1087.2529050780518 508.877121003613 M1022.9243118269947 594.0616880384749 C1045.6413998729024 568.8533776844617, 1068.9758582752847 540.0990073935434, 1094.13307874599 510.6388569553354 M1023.9027565927822 592.5689773703469 C1045.5327112423474 565.4916799315488, 1068.8850064320736 542.1475898944041, 1097.8289978978735 509.35223752725585 M1033.3483455238966 595.4908820890446 C1055.8878244787975 571.1134286045095, 1074.5463526899164 543.6084338992072, 1107.3693027348852 510.6857337993237 M1034.7700443283757 591.3138730993119 C1054.470492983754 568.9212559513129, 1075.9976004413536 546.5293142355944, 1106.6643249054102 509.7009272137324 M1044.888341249302 591.5231540281032 C1065.8845885258584 565.6444268857342, 1088.9227099088923 545.644095409289, 1117.5645289824465 507.3505407191563 M1047.204358679112 593.0005083874506 C1071.2766708623867 565.8134676301627, 1094.9307231982161 535.6078542863576, 1118.4175770346196 509.83306716724593 M1055.0567196575075 594.2159074201037 C1078.8094632508241 565.8538933532523, 1106.4882398103373 536.8131786448444, 1130.9764863014796 510.84089867200873 M1055.5171162709676 594.0208357494113 C1080.8507238592401 562.7811372448822, 1107.1389476130785 534.3317574479504, 1126.801240788737 510.5647530764172 M1067.4625810903103 590.4517411419993 C1091.5629522191698 560.6695704336792, 1118.2210370454122 533.327286937773, 1136.334392221282 513.2161643473344 M1066.4167063861692 592.0338975435925 C1094.0121065939572 563.2507096087802, 1116.6341692011606 536.4946769672638, 1137.9714593562398 510.083835893395 M1078.7804555770072 592.4696993832429 C1104.7764231331055 561.5889629679634, 1124.5227032955502 536.3561576794764, 1148.1516439586503 512.6733897470864 M1077.7741159631933 591.4502009721425 C1097.6405806124862 567.3975681692475, 1120.6638673503246 543.6833175062462, 1150.137598581854 511.68900641407765 M1086.719052834395 595.3965216457877 C1106.2110313475432 567.6867613571234, 1132.4999202546753 543.3204502204118, 1157.6945684178813 510.0785721857177 M1088.8885545967664 592.4160930809599 C1107.1349596412797 571.8231001126094, 1126.3627228170224 552.0559682807258, 1159.3278719665564 511.2741702781135 M1100.9900122667705 591.777892744087 C1119.5573093552257 561.8318693579517, 1147.797731996577 534.1678039951855, 1170.951172190772 508.49790429018157 M1100.2530795378652 593.298135759693 C1116.2023065155722 572.9477811892488, 1129.5836434803234 557.0633903439305, 1169.6549656675734 510.3128229689011 M1109.2766529659307 595.1096928050939 C1129.3839950675294 572.0464187050164, 1144.8268490579794 551.9225555960838, 1183.5998915566192 509.7290239999311 M1108.8202206937162 591.6674807417404 C1125.4322372551962 574.8369920779751, 1143.6649406594797 554.3761009848258, 1181.0816634983817 509.3424248135889 M1118.2027237111724 594.3692472682612 C1137.0749994388066 573.7904147300385, 1156.6405694411067 551.6714081752696, 1188.97834248222 507.83226456691926 M1119.767605627796 592.7842446042503 C1148.816480742417 562.1478494325955, 1177.9917176175122 529.1590072330839, 1190.6864719287078 508.9487759830751 M1131.3011529692926 589.5465768855425 C1148.822559647329 569.040171629334, 1167.5419215789614 545.7021305869184, 1199.7399525638898 511.17132371604504 M1129.763584559831 592.5818837681214 C1148.317626517863 574.3760658407012, 1165.5375385793336 555.1386000663704, 1200.1171270265472 510.75981065245406 M1141.982798894588 594.1756477213908 C1159.2627507933846 570.7173972747121, 1178.304501053911 551.5526714566095, 1202.5742387955397 523.9821902869346 M1141.732855365798 592.1515694980021 C1154.50173219782 576.5149956057638, 1166.768014020284 561.439724513486, 1202.6077472262405 524.4676486427973 M1153.5051993288557 592.8656211527589 C1170.7489528413994 570.5889615867468, 1185.6439194840002 550.9313333446955, 1198.793682612334 533.7348493459222 M1151.1220885779235 592.7265629022907 C1163.3770683941434 580.0944079569864, 1173.8121552563603 569.0004384682677, 1200.3625833721314 537.1434255331342 M1159.9413218013926 591.8321038691001 C1176.4734054442813 575.0630954188798, 1191.5339441662602 561.243916696016, 1204.060118731069 546.8529153949612 M1163.6655523846841 592.1665899331356 C1173.8729597568545 581.2462777241586, 1186.6404422666776 566.7960933255023, 1200.5792825589465 547.4100508693637 M1172.148313528995 594.4283978723678 C1183.8048700077447 583.0140206377578, 1193.62805367334 566.5174205644464, 1202.5383115560417 562.6789482485046 M1172.650737630806 591.9422163864355 C1181.7708580762808 580.8777303953107, 1191.9626744092195 568.7271548547892, 1200.399339537662 560.3606490411339 M1186.7362514159604 591.6767504770146 C1190.8923400990436 586.206840928075, 1199.4139416464666 577.3942653673881, 1202.2086461500585 573.7604126137281 M1185.683982817266 593.6192229018384 C1189.8432486515314 586.2775802661099, 1194.8420044646725 581.4536168719761, 1202.517662686514 571.2976438620659 M1194.429615575769 591.9567194877112 C1197.0937422665284 590.7499857924693, 1199.4064156327665 587.8224093188362, 1200.9215218688773 583.9644143164201 M1195.3892190993718 591.4784073140858 C1196.4629969042576 589.7600691973156, 1199.2253909928243 586.7168321529758, 1201.977682257159 583.8825170560317" stroke="rgba(249, 115, 22, 0.05)" stroke-width="1" fill="none"/><path d="M981.9413933318543 511.6973059391228 C1036.0701466745359 512.8666194167362, 1085.680071181484 511.87552138931767, 1200.194363111031 511.61202057531233 M979.4987164548721 509.9415911343157 C1031.47573187106 510.21851959611917, 1084.2315603508816 511.16588591138833, 1199.4169960670142 509.2862868463889 M1197.1395068736747 509.1362991509959 C1202.0895387620105 534.4006493641064, 1198.6874478251113 554.9168487517163, 1197.5036381157115 592.115483510308 M1198.8633942841552 508.90549045661464 C1200.8793720979056 540.5627852440812, 1201.8808309364877 570.6611186400987, 1201.3074222891591 589.5813200012781 M1199.7505813882344 587.9160114654738 C1120.4944730475886 586.5078906691614, 1040.1209736513606 587.2882607632297, 980.1466821048921 588.3261492434672 M1199.457851437597 590.6810682395741 C1119.7384103399208 591.2460883078924, 1038.5296017175608 590.315654378977, 979.4558733232166 588.792412986672 M978.7246099682525 591.6477775154635 C977.5335913679377 560.273467044346, 980.053159900643 524.7407884625718, 978.3205164941028 511.65168683510274 M981.2577490746044 588.8055802271701 C981.9735798815451 565.6736108274199, 982.1762725839577 538.3191363350488, 980.0252052336 508.68183110514656" stroke="#f97316" stroke-width="2" fill="none"/></g><text x="1000" y="548" fill="#f97316" font-size="13" font-family="'Segoe Print','Comic Sans MS',cursive,sans-serif">EC2 IDE Instance
(Running VS Code Server)</text><g><g><path d="M218.81193366926163 408.8501489283517 C253.3931190725416 409.20757946459577, 285.57004097942263 411.38395828096196, 347.843488576822 407.03709177393466 M220.47558008739725 410.7263987525366 C256.6412686291151 410.0787807587907, 292.38208238827065 409.4629140530154, 350.58615804323927 411.43490520259365" stroke="#c3c2b7" stroke-width="2" fill="none"/></g><g><path d="M348.9307403023355 408.96513403551654 C347.39075620457754 411.02717647750785, 343.6187927355426 414.70347868848563, 331.48004182708786 414.3429127580969 M350.42802207865753 410.65375887728294 C345.22829146797426 413.2412762661394, 339.738988883385 414.66298736306396, 333.94844434686337 418.30094484388997" stroke="#c3c2b7" stroke-width="2" fill="none"/></g><g><path d="M348.9307403023355 408.96513403551654 C347.25447175554166 407.5920539250113, 343.48250828650674 407.8332335834927, 331.48004182708786 400.3238524349855 M350.42802207865753 410.65375887728294 C345.4139221287743 409.28929400189475, 339.924619544185 406.7590228345747, 333.94844434686337 404.2818845207786" stroke="#c3c2b7" stroke-width="2" fill="none"/></g></g><text x="235" y="391" fill="#c3c2b7" font-size="11" font-family="'Segoe Print','Comic Sans MS',cursive,sans-serif">1. Request workspace</text><g><g><path d="M551.3837240124121 411.7418031459674 C577.5342006906867 411.89798653466625, 604.0903561180457 411.39435664160175, 661.4627046072856 408.21409828122705 M548.5295833977871 408.5201945793815 C587.0190293979831 411.94911247000095, 620.7600656501018 412.62422792121765, 658.8450351837091 410.69335282268" stroke="#c3c2b7" stroke-width="2" fill="none"/></g><g><path d="M661.2453516111709 411.56762283137067 C656.5701865157197 414.28875689228687, 652.1490753689587 415.5531142886852, 644.7373362545051 415.40221861466006 M658.6766250580083 408.66817512144337 C655.9015599475484 412.69841921140926, 648.7510045702414 415.581347709473, 642.3814337732863 417.6335477019677" stroke="#c3c2b7" stroke-width="2" fill="none"/></g><g><path d="M661.2453516111709 411.56762283137067 C656.3480726647484 410.8535082919741, 651.9269615179875 408.68261708805966, 644.7373362545051 401.3831582915487 M658.6766250580083 408.66817512144337 C655.6977169603934 408.1477700274719, 648.5471615830864 406.48004934159826, 642.3814337732863 403.6144873788563" stroke="#c3c2b7" stroke-width="2" fill="none"/></g></g><text x="565" y="391" fill="#c3c2b7" font-size="11" font-family="'Segoe Print','Comic Sans MS',cursive,sans-serif">2. JWT API Call</text><g><g><path d="M767.9555143555626 468.63345736358315 C769.0590391594544 480.0108011486009, 767.9395433205739 486.62917371932417, 769.0819206377491 509.39110478851944 M769.5835867081769 469.31399040622637 C769.883784557078 484.815686668735, 769.8591520882584 498.47411310626194, 770.103912324179 509.9518004427664" stroke="#339933" stroke-width="2" fill="none"/></g><g><path d="M768.1599629200064 508.7701116272248 C768.1733408270147 506.2286724000909, 765.4481072479578 499.3006850883508, 762.1641984124185 492.87289641761555 M769.6252280373592 509.38259136560373 C766.9883356261814 504.04959591855425, 764.3915083524287 497.0294448178549, 763.0839909302053 493.3775225064378" stroke="#339933" stroke-width="2" fill="none"/></g><g><path d="M768.1599629200064 508.7701116272248 C771.6087154751438 506.02172441660855, 772.3188565442158 499.09373710486847, 776.18325873553 492.87289641761555 M769.6252280373592 509.38259136560373 C772.1376517298115 503.9931702962216, 774.6901405596889 496.9730191955222, 777.1030512533168 493.3775225064378" stroke="#339933" stroke-width="2" fill="none"/></g></g><g><g><path d="M882.2414095271379 407.079284472391 C904.195696529001 408.9166723364964, 924.7705756481737 407.39302937928585, 970.8915286529809 412.97960804216564 M880.1105883633718 411.2108883196488 C913.7694878997281 410.40228452734647, 951.1946752397344 411.5138732140511, 970.7333508944139 409.5810242528096" stroke="#339933" stroke-width="2" fill="none"/></g><g><path d="M972.0172685744241 407.3713560251519 C967.7869888966168 410.78270375239845, 962.3921562332669 411.1291439269276, 954.223277895631 419.69117739950474 M970.0995295270346 411.08979948768393 C962.3567764952778 412.480981153428, 958.1143419288942 416.2057357532003, 954.0809179129207 416.6324519890843" stroke="#339933" stroke-width="2" fill="none"/></g><g><path d="M972.0172685744241 407.3713560251519 C967.9408171143743 407.34726608036124, 962.5459844510244 404.2582685828532, 954.223277895631 405.67211707639336 M970.0995295270346 411.08979948768393 C962.5780953794543 407.03233158995164, 958.3356608130707 405.3084366262476, 954.0809179129207 402.6133916659729" stroke="#339933" stroke-width="2" fill="none"/></g></g><text x="890" y="391" fill="#339933" font-size="11" font-family="'Segoe Print','Comic Sans MS',cursive,sans-serif">3. Provision VM</text><g><g><path d="M1088.8131998702884 469.97093869000673 C1091.0359916765988 479.7949736267328, 1088.8348314841091 482.94323494285345, 1088.5107446834445 498.156614549458 M1091.1645916737616 469.0046841464937 C1090.4682771256566 476.2259222753346, 1091.8548736861349 482.569410007447, 1088.9922280348837 498.83947187289596" stroke="#ff9900" stroke-width="2" fill="none"/></g><g><path d="M1088.9318798832596 499.9738448210061 C1089.425989085438 498.1898292847096, 1085.7271630522705 490.3436066168973, 1081.6501400535444 481.76185520246025 M1091.0481325063854 499.1042157318443 C1088.2769779385585 495.58615216106085, 1087.9031626337155 491.21266123526635, 1082.0834750698398 482.3764267935544" stroke="#ff9900" stroke-width="2" fill="none"/></g><g><path d="M1088.9318798832596 499.9738448210061 C1092.8615528052912 498.08180753876763, 1092.5982904919774 490.23558487095534, 1095.6692003766557 481.76185520246025 M1091.0481325063854 499.1042157318443 C1091.5204823571053 495.4552481651502, 1094.390171470809 491.0817572393557, 1096.102535392951 482.3764267935544" stroke="#ff9900" stroke-width="2" fill="none"/></g></g><g><g><path d="M968.8396380167454 549.3667063195259 C785.3797536141798 514.1715196723119, 602.953871363923 478.84450062867256, 220.1281410794705 410.6980471212417 M969.4766373315827 550.3606328239664 C780.7366117863953 513.9545484110713, 591.5425731838718 479.19356284178787, 219.84866664204748 410.58747827317563" stroke="#f97316" stroke-width="2" fill="none"/></g><g><path d="M217.38918553767726 408.57508921893316 C222.24780840504968 410.24281793161396, 229.6515005099717 407.0104329183032, 237.87213491181353 407.72231254069396 M218.82243399606085 410.8114238539245 C223.82348431752354 408.1481513320489, 229.03849822428995 408.5688825417389, 237.2433174276117 407.47353263254536" stroke="#f97316" stroke-width="2" fill="none"/></g><g><path d="M217.38918553767726 408.57508921893316 C221.59272262304617 413.6030098882924, 228.36598713878885 413.74791553129944, 235.29967781410738 421.50333270697695 M218.82243399606085 410.8114238539245 C223.03399684753148 411.6285392469535, 227.5989102314212 415.5319518291972, 234.67086032990554 421.25455279882834" stroke="#f97316" stroke-width="2" fill="none"/></g></g><text x="380" y="512" fill="#f97316" font-size="12" font-family="'Segoe Print','Comic Sans MS',cursive,sans-serif">4. Route developer to instant cloud IDE link (DNS/IP)</text><g><path d="M149.67088538501412 341.3084200164303 C152.04932513359935 299.46497085597366, 148.76650058750064 261.0289456686005, 147.93956872913986 182.9221243103966 M149.74559663934633 338.695377886761 C147.75920247389004 294.1795214419253, 147.55702806366608 246.7514340286143, 150.8805437455885 180.7271433030255" stroke="#ff5555" stroke-width="2" fill="none"/></g><g><path d="M149.18271222263576 179.90169885009527 C301.6558769822121 182.3672755930424, 454.54920928329227 183.34180795884134, 769.8996706977487 180.2042510256171 M150.1090393178165 180.23691032007338 C346.2963677413762 179.37044623276591, 542.4019693277776 178.96426029583813, 769.4039929263294 180.14254684522749" stroke="#ff5555" stroke-width="2" fill="none"/></g><g><g><path d="M772.2426757281646 178.20007423404604 C773.5607672805153 223.83150657638907, 769.5568331653438 263.5924946209416, 771.5587847596034 348.099130817689 M770.7995999497361 179.48917371360585 C770.5106647964567 238.36872173892334, 772.249309739098 293.97971841460094, 769.1394208860584 349.9855909231119" stroke="#ff5555" stroke-width="2" fill="none"/></g><g><path d="M772.0184081553482 348.38006681064144 C769.7137361828093 347.9425384543462, 764.3922560594578 342.1659235264134, 764.3933761220874 331.71011984386814 M770.7196399547626 349.54025634224524 C766.4871542467062 345.1524845440104, 765.6818488361939 337.8637279457067, 762.2159486358968 333.4079339387487" stroke="#ff5555" stroke-width="2" fill="none"/></g><g><path d="M772.0184081553482 348.38006681064144 C773.1496150222035 347.8311650470942, 771.2640137382464 342.0545501191614, 778.4124364451989 331.71011984386814 M770.7196399547626 349.54025634224524 C771.2273259644847 345.23390737322444, 775.1621922717511 337.94515077492076, 776.2350089590083 333.4079339387487" stroke="#ff5555" stroke-width="2" fill="none"/></g></g><text x="320" y="162" fill="#ff5555" font-size="12" font-family="'Segoe Print','Comic Sans MS',cursive,sans-serif">🔄 Keepalive loop: Active heartbeat checks every 60s</text></svg>